<svg xmlns="http://www.w3.org/2000/svg" width="760" height="820" viewBox="0 0 760 820">
  <rect width="760" height="820" rx="20" fill="#1a181b"/>
  <path d="M326.2 533.8 L317.4 525.3 L310.1 518.5 L309.3 517.6 L304.2 512.8 L296.9 505.9 L290.9 500.2 L280.9 490.6 L278.4 488.3 L272.3 482.5 L266.3 476.9 L261.1 471.9 L257.0 468.0 L253.5 464.4 L251.3 462.0 L249.2 459.4 L246.3 454.8 L244.6 450.8 L244.0 445.5 L244.3 442.2 L245.1 438.0 L246.7 431.5 L247.0 430.3 L247.7 427.2 L248.3 422.8 L248.3 419.6 L247.9 414.9 L247.4 411.4 L246.5 407.3 L243.6 400.0 L240.7 395.3 L238.7 392.4 L235.0 388.1 L231.3 384.4 L224.9 378.6 L218.8 373.4 L214.6 369.7 L210.6 366.0 L204.0 359.8 L200.4 356.2 L197.2 353.0 L193.7 349.6 L190.7 346.5 L186.2 341.7 L182.8 338.1 L178.4 333.1 L172.4 326.2 L168.2 321.4 L164.1 316.3 L156.9 307.1 L152.7 301.6 L149.4 297.1 L145.6 291.8 L141.9 286.6 L137.5 280.1 L137.1 279.4 L133.5 274.1 L127.5 264.8 L125.8 262.3 L121.6 255.4 L120.6 253.7 L118.9 249.5 L118.2 246.1 L118.0 243.2 L118.1 241.2 L118.8 238.2 L119.6 236.5 L121.0 234.7 L122.5 233.4 L131.3 230.9 L134.5 230.5 L139.7 229.8 L143.3 229.5 L146.6 229.1 L148.5 228.8 L151.7 228.0 L154.7 227.0 L161.1 222.9 L164.2 219.4 L166.1 215.8 L167.5 211.2 L167.8 208.1 L167.8 204.5 L167.2 197.7 L167.0 196.4 L165.7 187.8 L165.0 183.1 L164.5 180.2 L163.7 174.9 L163.1 168.6 L163.0 165.2 L163.0 162.0 L163.4 157.2 L165.4 148.1 L169.1 140.5 L172.3 136.1 L178.1 130.5 L183.5 126.1 L187.1 123.3 L192.7 119.3 L200.0 114.3 L205.5 110.9 L212.2 107.3 L217.7 104.5 L222.9 102.1 L229.0 99.5 L237.9 95.6 L244.0 92.9 L250.5 90.1 L256.4 87.4 L260.6 85.4 L265.5 83.1 L271.6 79.8 L279.3 75.1 L282.0 73.5 L286.2 71.2 L290.4 70.0 L296.0 70.0 L296.7 70.2 L303.1 72.7 L305.8 74.5 L307.5 75.7 L315.9 81.5 L325.0 85.1 L330.5 86.5 L339.3 88.3 L344.5 89.3 L351.2 90.7 L353.1 91.1 L360.8 93.4 L365.9 95.2 L369.0 96.5 L372.5 98.1 L380.6 103.3 L385.9 107.8 L390.4 112.6 L396.9 121.0 L402.9 131.4 L407.3 141.9 L408.9 146.9 L410.8 153.6 L412.0 159.1 L413.0 163.8 L414.1 169.3 L415.6 178.2 L416.3 185.6 L416.4 189.9 L416.3 195.0 L416.0 200.8 L415.6 206.6 L415.2 212.0 L414.5 219.1 L413.4 227.0 L412.2 231.6 L409.3 239.9 L406.5 247.5 L404.8 252.4 L402.8 258.5 L401.4 262.9 L398.1 272.6 L397.2 275.1 L395.6 279.1 L389.9 291.5 L388.2 295.7 L386.1 303.3 L384.8 310.2 L384.2 316.5 L384.0 322.1 L384.4 332.9 L385.2 341.4 L386.2 348.9 L387.8 357.5 L390.4 367.1 L394.8 378.9 L399.8 389.9 L402.9 395.9 L406.4 402.0 L410.1 407.6 L414.5 413.4 L417.5 417.0 L421.8 421.8 L436.7 436.1 L441.0 439.9 L445.8 444.1 L452.4 449.5 L454.2 450.9 L459.0 454.5 L464.4 458.3 L470.3 461.6 L473.2 462.7 L477.5 463.5 L480.8 463.6 L485.8 463.3 L489.6 462.8 L498.2 461.6 L506.4 461.0 L513.5 461.1 L516.8 461.5 L523.0 463.5 L527.4 466.1 L533.4 470.7 L537.3 474.1 L543.4 479.3 L544.9 480.6 L552.2 486.6 L560.8 493.8 L564.7 497.2 L568.3 500.3 L578.5 509.0 L582.6 512.8 L584.4 514.5 L588.9 519.2 L592.3 523.2 L597.9 530.8 L602.7 538.7 L608.0 549.0 L610.1 553.6 L614.1 564.0 L616.7 571.3 L619.8 580.2 L622.0 586.7 L624.5 594.3 L626.5 600.6 L628.3 606.3 L629.9 611.2 L632.2 618.3 L635.1 627.3 L636.4 631.5 L638.4 638.8 L639.1 642.3 L640.2 648.4 L640.7 651.0 L641.3 654.4 L641.8 657.6 L642.0 659.9 L642.0 661.0 L641.8 663.7 L641.2 665.9 L639.8 668.3 L638.0 669.9 L636.0 671.0 L623.8 674.9 L621.3 675.6 L618.6 676.4 L614.7 677.4 L610.2 678.6 L605.7 679.6 L603.2 680.2 L600.1 680.9 L596.1 681.9 L589.2 683.7 L582.4 685.5 L576.4 687.0 L571.8 688.4 L566.4 689.6 L564.2 689.9 L557.6 690.0 L551.2 688.4 L546.8 686.0 L542.3 682.3 L537.7 677.1 L535.0 673.4 L533.1 670.6 L531.0 666.8 L529.0 663.0 L526.5 658.0 L523.6 652.1 L521.2 646.8 L518.6 641.2 L517.0 637.9 L514.4 633.3 L512.6 630.5 L512.4 630.3 L510.1 626.7 L508.0 624.4 L505.4 622.4 L503.7 621.6 L502.2 621.3 L498.3 621.7 L496.6 622.3 L494.7 623.4 L492.6 625.2 L492.3 625.4 L489.4 628.9 L487.5 631.9 L486.1 634.2 L484.3 637.3 L481.4 641.3 L479.2 643.4 L477.1 645.2 L472.1 648.1 L469.3 649.4 L465.1 650.6 L461.2 650.9 L460.0 650.9 L456.0 650.4 L451.4 649.2 L445.3 646.7 L442.8 645.3 L437.9 641.5 L435.0 639.0 L418.6 623.3 L414.9 619.5 L412.1 616.8 L408.5 613.4 L404.8 609.7 L401.9 606.9 L396.8 601.9 L392.7 597.9 L391.6 596.8 L387.0 592.3 L384.0 589.3 L374.9 580.4 L367.7 573.3 L363.5 569.2 L358.3 564.2 L353.9 560.1 L350.6 556.9 L345.1 551.7 L340.7 547.6 L336.5 543.6 L329.5 537.0 Z" fill="none" stroke="#f2f2f2" stroke-width="7" stroke-linejoin="round" stroke-linecap="round"/>
  <circle cx="326.2" cy="533.8" r="9" fill="#E10600"/>
  <text x="380" y="798" fill="#c9c7ca" font-family="ui-monospace, Menlo, monospace" font-size="26" letter-spacing="1.5" text-anchor="middle">MELBOURNE · AUSTRALIA</text>
</svg>