<svg xmlns="http://www.w3.org/2000/svg" width="760" height="820" viewBox="0 0 760 820">
  <rect width="760" height="820" rx="20" fill="#1a181b"/>
  <path d="M406.7 550.0 L399.4 551.8 L391.3 553.7 L376.4 557.4 L365.1 560.1 L361.3 561.0 L352.0 563.3 L338.7 566.7 L330.1 568.8 L315.9 572.3 L312.7 573.1 L299.8 576.3 L290.2 578.7 L283.6 580.3 L271.4 583.3 L261.6 585.6 L243.9 590.0 L228.6 593.8 L222.8 595.1 L207.2 598.7 L200.7 599.9 L195.8 600.7 L180.3 601.6 L170.9 600.7 L161.5 598.4 L156.7 596.5 L148.7 592.1 L140.3 585.3 L135.4 579.4 L130.9 571.6 L129.0 566.6 L127.8 562.0 L127.1 551.8 L127.7 546.8 L129.5 540.1 L131.4 536.0 L133.9 532.0 L137.6 527.8 L141.1 525.0 L145.1 522.8 L149.2 521.5 L152.1 521.0 L154.9 520.9 L159.6 521.6 L162.3 522.7 L164.2 523.7 L168.1 526.9 L169.5 528.7 L170.8 531.1 L172.0 534.1 L172.7 537.3 L172.8 541.1 L172.3 545.4 L172.2 545.7 L171.5 549.5 L170.6 556.1 L171.6 562.9 L172.5 565.1 L176.0 569.8 L179.6 572.1 L181.8 572.9 L185.1 573.4 L189.3 572.9 L192.5 571.8 L195.2 570.2 L198.7 567.2 L202.0 563.1 L203.0 561.4 L205.0 557.3 L207.9 543.6 L207.9 538.0 L207.5 534.3 L206.3 527.6 L204.6 522.3 L203.0 518.4 L199.7 511.6 L196.4 506.3 L192.9 501.6 L189.5 497.4 L185.9 493.2 L182.2 489.0 L178.4 484.7 L169.6 475.0 L165.5 470.7 L156.2 460.6 L150.4 454.4 L144.6 448.1 L138.7 441.7 L133.8 436.3 L128.1 429.4 L123.0 422.9 L116.7 414.3 L109.3 402.4 L106.3 397.0 L103.1 390.7 L96.3 376.4 L95.7 375.0 L91.1 363.4 L88.3 356.2 L85.7 349.0 L80.9 335.6 L77.5 325.9 L74.5 317.7 L71.8 309.8 L70.4 304.2 L70.0 300.8 L70.2 297.4 L71.1 293.9 L73.2 290.1 L75.7 287.7 L77.7 286.5 L81.0 285.4 L83.5 285.1 L88.6 285.7 L91.2 286.4 L96.0 288.6 L98.5 290.2 L102.9 293.3 L109.7 299.4 L111.9 301.7 L117.7 308.3 L120.5 311.9 L126.0 319.9 L131.6 329.3 L136.8 339.5 L139.7 345.7 L143.1 353.3 L147.9 364.3 L151.3 371.8 L155.0 379.9 L158.7 387.5 L163.9 397.0 L170.0 406.1 L177.2 414.6 L183.8 420.7 L189.2 424.9 L197.0 429.5 L203.9 432.6 L241.1 435.9 L248.9 433.8 L260.1 428.6 L270.9 420.8 L279.1 412.1 L283.5 406.1 L290.2 394.2 L295.1 383.2 L302.1 370.1 L307.6 362.9 L313.2 357.4 L319.8 352.7 L326.1 349.6 L333.6 347.3 L340.6 346.3 L351.5 347.5 L356.1 348.8 L363.8 352.7 L368.5 356.0 L374.4 362.0 L376.8 365.3 L379.0 368.8 L381.4 373.6 L384.0 380.2 L385.5 384.6 L388.7 391.6 L393.5 398.4 L397.5 402.1 L401.1 404.3 L405.1 405.8 L408.6 406.6 L412.2 406.8 L418.9 405.6 L421.3 404.6 L425.0 402.5 L428.8 399.4 L431.3 396.8 L433.2 394.4 L435.1 391.8 L437.0 388.5 L439.5 382.5 L440.3 379.8 L441.8 372.5 L442.0 368.1 L441.6 362.9 L440.0 356.0 L437.6 348.5 L434.7 342.2 L430.7 334.8 L429.1 332.2 L411.5 304.7 L406.8 297.1 L399.4 285.1 L395.3 278.4 L392.6 274.0 L385.0 261.2 L378.1 249.5 L372.4 239.5 L370.5 236.2 L362.9 222.7 L357.9 213.6 L352.6 203.9 L350.1 199.5 L344.4 189.2 L340.8 182.8 L337.8 177.9 L335.4 174.5 L333.7 172.3 L330.9 169.4 L328.0 167.4 L324.3 165.8 L320.8 165.1 L316.2 165.5 L311.6 167.4 L309.7 168.6 L307.4 170.4 L305.4 172.4 L302.1 175.3 L300.0 177.0 L295.8 179.4 L292.2 180.6 L286.5 181.1 L281.6 180.3 L278.4 179.3 L273.2 176.4 L269.5 173.2 L267.2 170.6 L263.4 164.3 L261.5 158.7 L260.5 153.8 L260.1 149.0 L260.5 143.5 L261.5 138.3 L265.0 129.4 L268.1 124.4 L271.9 119.7 L277.5 114.7 L288.6 108.3 L300.1 105.0 L314.9 104.0 L321.9 105.0 L332.7 108.2 L339.5 111.1 L346.5 115.3 L352.6 119.8 L357.8 124.5 L365.2 133.0 L374.2 146.0 L380.1 155.4 L383.6 161.1 L387.6 167.5 L401.2 189.1 L406.6 197.7 L410.8 204.4 L417.5 215.1 L423.1 224.0 L430.0 235.0 L432.1 238.4 L435.7 244.0 L441.3 253.0 L446.6 261.4 L452.4 270.6 L456.8 277.7 L458.6 280.5 L463.1 287.7 L470.8 299.9 L477.6 310.7 L488.2 327.4 L495.5 338.9 L500.6 347.0 L505.2 354.3 L511.1 363.7 L515.4 370.4 L522.5 381.7 L534.1 400.0 L539.6 408.5 L546.8 420.0 L550.8 426.5 L553.1 430.1 L562.9 445.2 L582.0 474.8 L590.8 488.6 L596.5 497.4 L605.5 511.3 L613.6 523.8 L624.5 540.7 L631.8 552.1 L640.5 565.4 L644.7 571.9 L649.9 579.7 L656.0 588.9 L664.1 600.9 L668.0 606.7 L671.1 611.3 L676.5 619.4 L682.2 628.1 L684.3 631.3 L686.4 634.8 L688.0 637.5 L689.3 640.9 L689.8 642.7 L690.0 644.4 L690.0 647.4 L689.1 651.0 L687.8 653.2 L687.7 653.3 L685.3 655.0 L682.8 655.8 L678.1 656.0 L674.6 655.2 L672.8 654.6 L668.7 652.6 L663.6 649.2 L663.3 649.0 L657.8 644.3 L654.5 641.1 L648.9 635.2 L645.6 631.3 L640.7 624.9 L638.6 621.9 L635.8 617.9 L631.7 611.9 L628.9 607.5 L624.8 601.0 L620.7 594.1 L617.2 588.1 L613.0 580.7 L609.7 574.9 L601.1 560.3 L597.2 553.7 L591.3 544.6 L583.7 533.5 L580.2 529.3 L577.2 526.4 L573.9 523.8 L566.9 519.9 L559.9 518.1 L555.8 518.0 L548.0 518.8 L538.5 520.8 L532.8 521.9 L521.0 524.4 L513.5 526.1 L505.7 527.9 L495.3 530.1 L486.9 531.8 L477.8 533.7 L473.1 534.7 L467.6 535.9 L459.4 537.6 L448.5 540.0 L437.6 542.4 L427.5 544.8 L419.7 546.7 Z" fill="none" stroke="#f2f2f2" stroke-width="7" stroke-linejoin="round" stroke-linecap="round"/>
  <circle cx="406.7" cy="550.0" r="9" fill="#E10600"/>
  <text x="380" y="798" fill="#c9c7ca" font-family="ui-monospace, Menlo, monospace" font-size="26" letter-spacing="1.5" text-anchor="middle">SHANGHAI · CHINA</text>
</svg>