<svg xmlns="http://www.w3.org/2000/svg" width="760" height="820" viewBox="0 0 760 820">
  <rect width="760" height="820" rx="20" fill="#1a181b"/>
  <path d="M558.3 342.0 L563.7 348.4 L567.2 352.5 L572.1 358.2 L574.4 360.9 L580.6 368.2 L585.6 374.0 L588.6 377.5 L592.3 381.8 L599.4 390.2 L602.2 393.4 L605.6 397.3 L608.7 401.0 L612.9 405.8 L619.1 413.1 L625.3 420.5 L629.8 425.8 L633.0 429.5 L635.8 432.8 L638.9 436.5 L643.2 441.5 L650.2 449.8 L655.9 456.4 L661.2 462.6 L664.9 467.0 L668.1 470.7 L671.6 474.9 L674.7 478.6 L682.3 487.9 L685.9 493.0 L687.3 495.6 L690.0 507.0 L689.6 513.1 L688.2 519.4 L687.1 523.3 L686.4 525.5 L684.6 529.7 L682.8 532.4 L680.1 535.1 L677.7 536.6 L674.7 538.0 L669.7 539.1 L664.4 539.0 L658.4 537.4 L653.0 533.8 L647.8 527.4 L644.1 521.4 L642.6 518.9 L639.8 513.9 L637.7 510.1 L636.5 508.0 L633.6 503.2 L631.1 499.4 L629.2 496.6 L623.9 490.3 L619.1 486.1 L611.2 482.0 L606.6 481.0 L600.4 480.4 L592.4 479.6 L589.4 478.7 L587.3 477.9 L583.5 475.7 L580.5 473.3 L575.2 465.7 L573.6 461.2 L572.8 458.2 L571.8 454.8 L570.3 449.5 L569.1 445.2 L568.6 443.7 L565.1 437.2 L561.5 433.3 L557.6 430.5 L557.0 430.1 L548.5 426.9 L542.2 426.2 L538.4 426.0 L531.3 425.5 L526.1 424.5 L520.8 422.6 L508.4 412.2 L507.0 410.0 L505.1 406.2 L504.3 403.0 L503.9 399.0 L504.4 395.3 L507.4 386.9 L510.5 379.5 L510.8 378.7 L513.5 371.7 L514.8 365.6 L514.6 360.9 L513.2 356.3 L510.2 351.0 L506.9 347.3 L500.4 342.8 L497.6 341.5 L488.1 337.2 L484.5 335.8 L479.7 334.4 L474.3 333.2 L470.2 332.5 L465.3 332.0 L461.1 331.8 L456.9 331.8 L449.9 332.3 L446.2 332.8 L441.2 334.2 L436.6 335.8 L430.4 338.6 L426.0 340.9 L423.5 342.4 L417.4 346.6 L414.5 349.2 L410.0 353.9 L406.3 358.8 L402.0 364.5 L399.3 368.1 L394.4 374.6 L390.7 379.4 L386.5 384.3 L381.3 390.4 L378.0 393.4 L374.2 395.0 L367.9 396.3 L359.7 397.7 L354.6 398.5 L348.8 399.4 L344.3 399.9 L339.6 400.0 L335.5 399.7 L333.0 399.3 L330.6 398.5 L328.2 397.1 L325.6 394.0 L324.0 391.0 L322.7 386.9 L322.3 384.4 L322.0 381.3 L321.8 379.5 L321.2 375.5 L320.3 371.4 L319.4 367.3 L318.7 363.6 L318.2 361.6 L317.4 357.8 L316.2 352.3 L315.5 348.9 L315.3 348.1 L313.3 339.1 L312.2 333.8 L311.3 329.7 L310.1 323.7 L310.0 322.8 L308.6 315.9 L308.1 312.4 L307.3 306.2 L307.6 299.0 L309.7 290.2 L313.3 281.7 L314.5 279.2 L316.4 275.3 L318.3 270.6 L318.7 269.0 L319.1 266.2 L318.7 263.6 L317.4 261.2 L315.7 259.6 L315.1 259.3 L314.2 259.0 L312.9 258.7 L310.9 258.7 L310.3 258.9 L309.3 259.2 L307.9 259.9 L306.6 260.9 L305.7 261.7 L304.3 263.4 L303.3 265.1 L302.1 267.3 L301.4 268.7 L300.4 270.6 L299.5 272.3 L297.9 275.2 L296.6 277.6 L293.4 283.0 L290.2 288.0 L287.2 292.5 L286.6 293.3 L284.6 296.3 L282.2 299.9 L277.4 305.8 L271.6 311.3 L267.7 314.4 L265.2 316.0 L256.9 320.1 L249.6 321.8 L247.8 322.1 L243.3 322.7 L234.9 323.3 L227.0 323.2 L220.4 322.6 L213.9 321.5 L206.9 319.8 L203.2 318.8 L199.4 317.5 L195.7 316.3 L190.7 314.4 L184.2 311.8 L176.5 308.3 L172.2 305.8 L166.8 302.1 L161.2 297.8 L156.4 293.3 L149.7 285.6 L146.0 280.2 L142.7 274.4 L139.1 266.4 L136.7 260.6 L133.7 253.5 L132.0 249.5 L130.1 245.3 L128.3 241.6 L124.5 234.4 L122.5 231.0 L119.0 226.9 L115.2 224.1 L110.4 222.0 L105.8 221.1 L104.3 221.0 L99.6 220.9 L94.2 221.3 L88.4 222.4 L83.7 223.8 L80.7 225.2 L77.8 226.9 L74.1 230.3 L71.0 236.0 L70.3 239.0 L70.0 241.3 L70.2 245.4 L71.2 249.6 L71.4 250.1 L73.2 254.4 L74.7 257.0 L77.4 260.8 L80.0 263.7 L85.3 268.7 L88.5 271.2 L93.8 275.4 L98.9 279.1 L104.2 282.9 L107.2 285.0 L110.8 287.4 L114.4 289.8 L118.5 292.4 L122.8 295.0 L127.5 297.8 L132.7 300.8 L134.8 302.0 L139.3 304.5 L146.5 308.3 L151.3 310.7 L159.1 314.6 L163.2 316.4 L166.8 318.0 L172.8 320.6 L195.1 328.7 L200.9 330.7 L209.2 333.5 L213.7 335.0 L218.1 336.5 L245.9 345.8 L249.9 347.1 L253.9 348.5 L260.0 350.5 L266.6 352.7 L268.1 353.2 L274.3 355.3 L280.9 357.5 L285.5 359.1 L291.1 361.0 L295.7 362.5 L300.3 364.0 L307.0 366.3 L315.7 369.2 L322.9 371.7 L329.0 373.6 L331.4 374.1 L335.8 374.4 L341.6 373.6 L352.6 369.9 L359.0 367.2 L362.8 365.3 L371.2 360.6 L375.8 357.6 L376.7 357.0 L384.3 351.3 L387.5 348.6 L393.0 343.6 L397.7 339.3 L405.0 332.3 L408.7 328.7 L414.6 322.8 L417.4 319.9 L423.9 313.5 L429.0 308.6 L432.4 306.0 L436.3 303.9 L438.2 303.2 L438.6 303.1 L440.3 302.7 L443.7 302.5 L445.7 303.0 L447.5 303.9 L448.5 304.6 L449.9 305.9 L452.7 308.1 L454.4 308.8 L455.3 309.0 L457.3 309.2 L459.5 309.0 L461.1 308.6 L462.7 307.9 L465.0 306.5 L466.3 305.4 L467.8 303.9 L469.1 302.6 L470.8 301.1 L473.0 299.2 L477.5 296.5 L480.7 295.4 L483.1 294.9 L489.0 294.5 L491.9 294.5 L495.8 294.9 L498.0 295.2 L502.7 296.2 L505.3 297.0 L511.6 299.2 L518.3 302.4 L521.5 304.3 L524.3 306.2 L529.3 310.0 L534.2 314.6 L538.7 319.2 L541.1 321.9 L545.2 326.7 L546.7 328.5 L553.6 336.5 Z" fill="none" stroke="#f2f2f2" stroke-width="7" stroke-linejoin="round" stroke-linecap="round"/>
  <circle cx="558.3" cy="342.0" r="9" fill="#E10600"/>
  <text x="380" y="798" fill="#c9c7ca" font-family="ui-monospace, Menlo, monospace" font-size="26" letter-spacing="1.5" text-anchor="middle">SUZUKA · JAPAN</text>
</svg>