<svg xmlns="http://www.w3.org/2000/svg" width="760" height="820" viewBox="0 0 760 820">
  <rect width="760" height="820" rx="20" fill="#1a181b"/>
  <path d="M412.9 549.2 L411.8 546.2 L409.9 540.9 L408.6 537.6 L406.9 532.6 L404.9 527.4 L403.4 523.2 L401.6 518.3 L401.0 516.8 L398.7 510.3 L396.6 504.5 L395.3 500.7 L394.0 495.9 L393.1 492.4 L391.7 487.3 L390.5 483.0 L389.4 478.8 L387.5 472.0 L386.6 468.6 L385.2 463.9 L384.4 461.7 L383.6 459.9 L382.5 457.9 L381.7 456.9 L379.8 455.2 L377.2 454.4 L375.7 454.6 L374.3 454.8 L373.1 455.1 L371.8 455.3 L370.2 455.2 L368.9 454.9 L368.4 454.6 L367.5 454.0 L366.7 453.0 L366.1 451.5 L365.9 450.7 L365.8 448.9 L365.9 447.0 L366.1 444.9 L366.4 442.4 L366.8 440.0 L367.2 437.9 L367.6 436.2 L367.9 434.7 L368.9 430.1 L369.6 425.9 L369.8 423.9 L369.9 420.6 L369.8 416.4 L369.3 412.1 L369.1 409.9 L368.7 407.0 L368.3 404.0 L367.9 401.0 L367.3 396.4 L366.5 390.2 L366.1 387.0 L365.7 383.8 L365.2 380.3 L364.8 377.4 L364.1 371.2 L363.8 368.9 L363.4 364.1 L363.2 361.2 L362.7 357.8 L362.2 356.6 L360.2 354.1 L359.5 353.7 L356.0 352.2 L352.4 350.5 L350.3 349.2 L348.0 347.0 L345.7 344.0 L344.7 342.3 L343.2 339.1 L342.4 336.8 L341.5 332.8 L341.2 329.1 L341.2 326.7 L341.4 324.5 L341.9 320.9 L342.9 317.7 L345.2 313.0 L345.9 311.9 L347.7 308.6 L349.1 304.3 L349.6 298.9 L349.5 297.0 L348.8 292.0 L347.7 287.3 L346.0 281.9 L344.3 278.4 L341.5 275.6 L338.3 274.0 L335.1 271.6 L333.4 269.1 L332.0 265.2 L331.3 257.8 L331.2 253.4 L331.3 251.2 L331.6 247.2 L332.1 244.2 L333.3 240.0 L334.0 238.5 L335.1 236.6 L337.4 233.8 L340.7 231.1 L344.5 228.8 L347.8 227.0 L350.5 225.3 L352.5 223.4 L354.3 220.8 L355.4 218.4 L356.8 212.8 L357.4 209.2 L358.0 205.9 L358.8 202.3 L359.8 198.6 L361.7 192.1 L362.2 190.5 L363.2 186.7 L364.4 180.4 L364.9 177.0 L365.4 172.8 L366.0 166.5 L366.5 161.6 L366.9 154.1 L367.0 150.1 L367.0 146.4 L366.9 141.8 L366.8 139.6 L366.6 132.7 L366.4 129.4 L366.1 123.5 L366.0 119.8 L365.8 117.3 L365.6 112.8 L365.5 109.9 L365.3 106.2 L364.9 100.3 L364.6 97.0 L363.9 92.5 L363.1 87.5 L362.4 84.1 L362.0 82.5 L360.4 78.0 L358.6 75.1 L356.6 73.0 L354.3 71.4 L351.4 70.3 L348.4 70.0 L345.7 70.7 L343.8 71.7 L342.2 72.9 L340.7 74.5 L339.9 75.6 L339.0 77.1 L337.8 80.1 L337.2 82.3 L336.9 84.3 L336.7 86.5 L336.6 91.0 L336.9 94.6 L337.2 97.0 L338.4 101.9 L339.9 105.8 L342.5 110.2 L344.5 113.2 L345.9 115.6 L347.6 118.6 L349.0 121.7 L349.9 124.1 L350.9 127.9 L351.4 130.2 L351.7 132.4 L352.2 137.1 L352.5 141.1 L352.6 143.7 L352.6 146.1 L352.3 150.4 L351.6 155.5 L350.8 159.1 L350.3 160.8 L349.5 163.4 L348.3 166.7 L345.9 172.1 L343.2 177.9 L340.8 184.0 L339.4 188.8 L339.2 189.7 L338.3 195.1 L337.6 199.4 L336.9 201.9 L336.0 204.0 L335.6 204.6 L332.1 208.1 L330.5 208.9 L327.6 209.5 L325.2 209.8 L320.3 212.5 L318.3 215.1 L316.7 218.1 L316.1 219.7 L315.2 223.6 L314.6 228.6 L314.3 233.1 L314.3 235.5 L314.3 240.8 L314.4 244.0 L314.7 249.2 L315.1 252.1 L315.7 255.4 L317.1 261.3 L318.9 267.2 L320.6 271.4 L322.4 275.7 L324.2 279.9 L324.9 281.6 L327.2 287.3 L328.9 292.5 L329.9 296.0 L331.6 304.0 L332.1 307.7 L332.5 312.2 L332.7 315.3 L332.8 319.1 L333.0 323.3 L333.2 327.9 L333.7 332.5 L334.1 336.0 L335.0 341.0 L335.8 344.7 L336.9 348.9 L337.3 350.0 L338.9 354.4 L340.4 357.6 L341.7 360.4 L343.6 363.8 L347.7 370.4 L351.2 377.2 L353.7 383.3 L355.2 388.1 L355.6 389.2 L357.5 398.2 L358.1 402.0 L358.7 406.6 L359.3 416.2 L359.3 423.0 L358.7 431.3 L358.1 436.7 L357.5 440.5 L356.7 446.1 L356.5 447.6 L356.3 450.0 L356.2 451.1 L356.4 454.1 L357.4 456.8 L358.3 458.3 L359.9 460.1 L361.7 461.6 L364.3 463.7 L366.6 465.5 L369.5 468.0 L372.5 471.9 L373.8 475.0 L374.4 477.2 L374.9 480.1 L375.5 485.5 L375.7 492.2 L375.3 497.2 L374.6 501.0 L372.4 507.8 L370.4 512.0 L369.1 514.8 L367.0 518.8 L364.4 524.1 L363.2 526.3 L360.8 531.4 L358.6 536.4 L356.3 542.5 L356.0 543.6 L354.2 550.7 L353.6 554.8 L353.1 560.4 L353.1 563.0 L353.1 567.7 L353.7 574.1 L354.5 579.5 L355.4 584.4 L356.1 587.4 L357.9 594.5 L359.3 600.2 L360.8 606.2 L362.6 612.2 L363.5 615.2 L366.4 622.9 L368.2 626.8 L370.5 630.9 L372.1 633.6 L373.8 636.1 L376.1 639.3 L380.2 644.4 L384.9 649.5 L387.6 652.2 L389.9 654.3 L394.4 658.5 L396.9 660.8 L400.8 664.5 L407.5 670.1 L411.1 672.8 L415.6 676.2 L417.1 677.3 L420.6 679.9 L423.4 682.0 L426.4 684.2 L428.4 685.8 L430.0 687.0 L433.0 689.1 L435.4 689.9 L437.6 690.0 L440.6 689.2 L442.0 688.3 L443.5 686.9 L444.6 685.3 L445.2 684.0 L445.5 683.0 L445.7 681.1 L445.6 678.3 L445.1 675.6 L444.6 673.0 L443.7 669.2 L443.3 667.2 L442.8 664.8 L441.8 660.5 L441.3 657.8 L440.8 655.3 L440.3 652.7 L439.6 649.5 L438.1 642.4 L437.4 639.2 L436.8 636.6 L436.2 634.1 L435.5 630.8 L434.8 627.7 L433.8 623.3 L432.6 618.1 L431.5 613.2 L430.1 606.5 L429.3 603.1 L428.1 597.6 L426.4 590.6 L425.1 585.7 L423.2 579.4 L420.3 570.1 L418.5 564.8 L415.9 557.3 Z" fill="none" stroke="#f2f2f2" stroke-width="7" stroke-linejoin="round" stroke-linecap="round"/>
  <circle cx="412.9" cy="549.2" r="9" fill="#E10600"/>
  <text x="380" y="798" fill="#c9c7ca" font-family="ui-monospace, Menlo, monospace" font-size="26" letter-spacing="1.5" text-anchor="middle">JEDDAH · SAUDI ARABIA</text>
</svg>