<svg xmlns="http://www.w3.org/2000/svg" width="760" height="820" viewBox="0 0 760 820">
  <rect width="760" height="820" rx="20" fill="#1a181b"/>
  <path d="M338.3 303.8 L340.6 305.2 L346.8 309.1 L352.5 312.7 L361.7 318.5 L366.9 321.8 L373.9 326.2 L375.1 326.9 L385.7 333.4 L394.0 338.3 L400.0 341.9 L407.2 346.0 L412.7 348.9 L421.1 353.3 L431.8 358.9 L441.5 364.0 L445.4 366.1 L452.3 370.5 L458.2 376.4 L459.7 379.3 L460.2 383.6 L459.4 387.0 L458.6 388.7 L457.6 390.3 L454.5 394.0 L451.3 397.3 L449.0 399.6 L444.8 403.6 L442.6 406.2 L440.9 408.4 L438.9 411.7 L437.1 415.6 L436.5 417.7 L435.7 422.0 L435.5 425.6 L435.5 430.1 L435.2 436.5 L433.7 444.0 L432.6 447.6 L428.0 456.9 L425.2 460.3 L419.1 465.8 L415.6 468.2 L406.7 473.0 L402.7 474.7 L395.4 477.1 L389.3 478.6 L384.3 479.5 L379.7 480.0 L372.2 480.3 L367.5 480.2 L354.0 478.2 L350.6 477.3 L342.0 474.3 L335.3 471.0 L330.8 468.6 L324.2 464.6 L318.8 461.2 L315.5 459.1 L303.4 451.4 L293.4 445.0 L285.4 439.9 L269.7 430.1 L265.0 427.4 L260.2 424.9 L252.5 420.8 L245.9 417.8 L238.1 415.3 L230.7 414.2 L225.7 414.1 L217.5 414.9 L210.3 416.9 L204.1 420.0 L199.0 423.0 L193.3 426.4 L187.1 429.2 L182.0 430.6 L180.9 430.8 L175.6 431.3 L167.4 430.4 L159.6 427.5 L154.2 424.2 L148.9 420.4 L142.5 414.8 L134.3 408.8 L127.4 405.9 L118.5 404.2 L112.7 404.2 L109.0 404.7 L104.8 405.5 L97.3 407.9 L93.0 409.7 L89.8 411.4 L84.4 415.1 L79.8 419.3 L73.0 429.0 L71.3 433.5 L70.7 435.8 L70.0 441.3 L70.1 445.5 L70.7 449.1 L71.7 452.4 L72.1 453.2 L74.2 456.8 L76.4 459.1 L79.5 461.2 L83.2 462.7 L88.7 463.8 L94.7 464.2 L97.6 464.2 L100.5 464.2 L106.4 464.4 L112.5 464.6 L117.6 465.0 L121.6 465.5 L124.6 465.9 L133.7 467.3 L139.0 468.2 L145.6 469.4 L155.1 471.5 L166.0 473.6 L172.9 474.3 L175.8 474.5 L185.8 474.5 L194.1 474.3 L200.2 474.0 L211.3 473.4 L216.4 473.2 L222.1 473.1 L231.7 472.8 L238.8 472.7 L251.2 472.6 L259.1 472.5 L265.7 472.4 L279.9 472.4 L291.9 473.3 L300.5 475.0 L309.2 477.5 L321.1 481.7 L334.8 486.5 L341.5 488.6 L346.8 490.3 L356.9 493.4 L362.2 494.9 L367.7 496.3 L380.9 499.0 L387.2 500.0 L395.0 500.9 L402.9 501.4 L412.9 501.5 L421.6 501.2 L429.6 500.7 L444.6 499.2 L453.8 497.7 L460.9 496.3 L468.7 494.4 L477.0 491.9 L484.7 489.5 L490.2 487.7 L505.3 482.5 L513.7 479.7 L523.3 476.4 L534.4 472.7 L548.0 467.8 L555.4 465.0 L569.6 459.1 L575.5 456.5 L580.8 454.1 L591.9 449.0 L599.1 445.6 L606.2 442.1 L616.2 437.2 L623.3 433.5 L625.0 432.5 L632.5 428.3 L639.6 423.7 L643.2 421.1 L646.9 417.9 L648.0 416.6 L649.2 415.1 L650.7 413.1 L652.2 401.9 L651.8 401.1 L649.5 398.2 L648.3 396.9 L644.7 393.8 L641.8 391.5 L639.3 389.4 L636.1 386.3 L634.5 384.5 L632.3 381.1 L631.0 378.2 L630.1 373.3 L630.5 369.4 L631.4 366.1 L632.4 363.7 L633.7 361.5 L637.2 357.7 L638.9 356.5 L642.4 354.6 L645.1 353.7 L646.7 353.4 L650.1 353.0 L652.7 352.9 L656.1 352.9 L660.7 352.9 L662.8 352.8 L668.4 352.0 L672.5 350.5 L676.8 348.1 L680.6 344.9 L684.5 340.0 L687.6 334.6 L688.9 331.1 L689.8 327.8 L690.0 326.0 L690.0 324.5 L689.6 322.8 L688.1 321.1 L685.3 319.6 L683.5 318.4 L682.4 316.5 L682.2 314.3 L682.4 313.1 L682.9 310.7 L683.3 308.9 L684.0 306.4 L685.5 301.1 L686.4 298.2 L687.4 295.4 L689.0 290.9 L689.5 289.0 L689.7 286.6 L689.4 284.8 L688.5 283.1 L687.1 281.6 L684.4 279.8 L682.6 278.9 L681.3 278.3 L677.2 277.1 L673.5 276.3 L672.5 276.2 L658.1 275.4 L650.7 275.2 L643.8 274.9 L638.5 274.8 L632.0 274.6 L623.3 274.3 L619.3 274.2 L612.6 274.0 L606.8 273.8 L601.9 273.7 L600.2 273.6 L593.5 273.5 L585.5 273.3 L579.1 273.2 L572.0 273.0 L567.2 272.9 L557.4 272.7 L551.2 272.5 L544.3 272.4 L537.9 272.3 L527.0 272.0 L521.9 271.9 L510.0 271.6 L494.7 271.2 L487.3 271.0 L479.8 270.7 L474.4 270.5 L462.7 270.1 L444.7 269.5 L437.0 269.2 L432.8 269.1 L422.9 268.7 L410.9 268.3 L402.4 268.0 L396.0 267.8 L383.9 267.3 L373.9 267.0 L365.2 266.7 L358.7 266.5 L348.6 266.1 L342.0 265.9 L331.9 265.6 L328.2 265.5 L315.1 265.3 L303.4 265.1 L296.7 264.9 L282.7 264.6 L273.9 264.5 L262.1 264.3 L256.2 264.2 L248.9 264.0 L240.1 263.9 L232.8 263.7 L218.4 263.3 L211.3 262.8 L205.6 262.3 L193.2 261.0 L185.6 260.3 L177.8 259.5 L171.5 258.9 L163.6 258.5 L159.8 258.6 L154.9 259.0 L152.8 259.4 L148.8 260.7 L146.7 262.0 L145.5 263.2 L144.1 265.8 L143.8 267.2 L143.8 269.2 L143.9 270.2 L144.3 271.6 L145.0 273.5 L146.9 276.4 L148.2 277.7 L149.7 279.2 L151.2 280.4 L154.2 282.6 L156.5 284.0 L158.1 284.8 L161.6 286.7 L165.7 289.3 L168.0 290.8 L173.5 294.2 L180.4 297.5 L190.4 299.6 L193.5 299.4 L199.3 298.3 L207.9 295.3 L216.9 291.0 L220.3 289.4 L229.1 285.2 L235.3 282.4 L244.0 279.6 L252.1 278.1 L259.3 277.3 L265.4 277.1 L279.4 277.7 L282.5 278.3 L290.4 280.2 L301.1 283.7 L307.0 286.0 L313.9 289.2 L319.1 292.0 L333.8 300.9 Z" fill="none" stroke="#f2f2f2" stroke-width="7" stroke-linejoin="round" stroke-linecap="round"/>
  <circle cx="338.3" cy="303.8" r="9" fill="#E10600"/>
  <text x="380" y="798" fill="#c9c7ca" font-family="ui-monospace, Menlo, monospace" font-size="26" letter-spacing="1.5" text-anchor="middle">MIAMI · USA</text>
</svg>