<svg xmlns="http://www.w3.org/2000/svg" width="760" height="820" viewBox="0 0 760 820">
  <rect width="760" height="820" rx="20" fill="#1a181b"/>
  <path d="M520.0 251.4 L508.6 252.0 L502.6 252.3 L495.0 252.8 L489.4 253.0 L483.9 253.2 L477.8 253.4 L472.2 253.6 L461.6 253.9 L448.8 253.4 L442.1 252.5 L433.7 250.8 L425.9 249.0 L420.4 247.7 L411.5 245.5 L399.3 242.5 L390.9 240.7 L385.5 239.8 L374.6 238.5 L367.7 238.1 L363.7 238.0 L357.9 238.0 L350.4 238.0 L343.0 238.1 L338.4 238.3 L328.0 238.9 L319.9 239.7 L317.1 239.9 L303.3 241.6 L298.2 242.3 L288.1 243.6 L284.2 244.2 L278.1 245.0 L269.3 246.4 L261.8 248.0 L255.4 249.8 L246.9 252.5 L238.6 255.1 L232.6 257.0 L229.0 258.9 L226.7 261.3 L225.2 264.4 L223.5 270.5 L222.6 273.4 L221.1 276.1 L218.5 279.3 L218.2 279.6 L211.4 284.6 L207.5 286.9 L204.4 288.7 L198.6 292.1 L193.9 294.8 L190.3 297.0 L184.9 301.3 L183.6 302.5 L178.0 311.0 L176.5 314.8 L174.6 319.6 L173.1 324.1 L170.9 329.9 L167.9 338.1 L166.3 342.2 L163.3 350.2 L161.9 354.0 L159.4 360.6 L156.1 369.3 L155.2 371.8 L153.3 376.7 L149.6 386.6 L146.8 394.1 L144.4 400.6 L143.0 404.1 L141.0 409.1 L138.8 414.6 L136.9 419.1 L134.4 425.0 L132.6 429.4 L130.3 437.6 L130.2 445.8 L131.7 453.8 L132.8 458.3 L134.7 466.9 L134.8 470.0 L134.2 473.4 L132.5 476.6 L127.0 481.9 L122.2 486.0 L116.9 490.5 L114.5 492.5 L111.4 495.2 L110.1 496.2 L103.5 501.8 L100.4 504.6 L96.5 508.4 L90.4 514.4 L87.6 517.2 L83.4 521.2 L81.2 523.2 L75.0 529.4 L72.5 532.8 L71.4 534.8 L71.1 535.4 L70.2 538.3 L70.0 540.3 L70.2 542.4 L71.1 544.9 L72.4 546.7 L74.8 549.0 L76.6 550.1 L78.5 550.9 L80.5 551.4 L82.3 551.7 L84.7 551.8 L88.2 551.7 L90.1 551.5 L94.7 550.9 L99.1 550.1 L101.9 549.6 L105.8 548.7 L110.6 547.7 L115.2 546.8 L121.4 545.7 L125.0 545.1 L132.4 543.7 L141.1 542.4 L147.3 541.4 L152.8 540.6 L158.4 539.8 L163.7 539.1 L170.0 538.2 L177.5 537.3 L186.5 536.3 L190.0 536.0 L197.2 535.6 L206.0 535.5 L217.0 535.9 L228.6 537.0 L237.6 538.0 L244.9 539.0 L249.1 539.5 L253.8 540.0 L264.3 541.0 L269.8 540.8 L273.6 540.0 L277.9 538.2 L283.6 533.5 L286.6 529.2 L290.1 522.4 L292.2 518.2 L294.0 514.2 L296.0 508.8 L296.5 507.0 L298.5 496.1 L298.7 492.3 L298.5 485.1 L298.3 482.6 L297.8 478.2 L296.2 468.3 L294.4 459.8 L293.1 454.2 L292.2 450.2 L291.0 445.1 L289.2 436.9 L287.4 429.2 L285.2 418.9 L284.5 413.8 L285.2 405.6 L287.2 400.2 L290.0 394.5 L292.6 390.0 L294.0 387.7 L297.1 383.3 L299.1 381.2 L301.5 379.5 L302.9 378.9 L306.5 378.2 L308.6 378.4 L311.2 378.9 L314.2 379.6 L317.3 380.5 L320.2 381.1 L322.8 381.6 L340.1 382.2 L343.2 382.2 L350.6 382.1 L354.2 382.1 L358.4 382.1 L367.0 382.0 L378.3 381.6 L383.0 381.4 L388.2 381.1 L393.5 380.9 L396.9 380.8 L403.2 380.5 L409.1 380.3 L417.8 379.9 L426.9 379.5 L431.0 379.2 L438.2 378.6 L445.8 377.9 L451.3 377.5 L456.3 377.1 L461.2 376.7 L464.7 376.5 L466.4 376.4 L471.1 376.8 L473.7 378.3 L476.5 381.2 L478.8 383.6 L480.4 384.8 L482.2 385.8 L484.6 386.4 L485.8 386.3 L490.5 385.3 L492.5 384.6 L495.9 383.4 L498.8 382.1 L502.5 380.3 L507.7 377.6 L510.6 376.0 L514.6 373.9 L519.6 371.3 L523.8 369.2 L527.6 367.3 L534.4 364.2 L537.6 362.8 L540.3 361.5 L545.9 358.6 L558.2 350.8 L563.7 346.8 L565.3 345.6 L574.4 338.6 L579.4 334.2 L582.8 331.1 L587.0 326.9 L595.2 318.1 L597.4 315.7 L603.9 308.4 L607.2 304.8 L610.1 301.5 L616.4 294.5 L625.0 285.1 L628.1 281.9 L632.9 277.4 L637.6 273.8 L646.4 268.8 L657.4 264.3 L662.0 262.5 L672.3 258.2 L678.7 255.6 L681.3 254.4 L684.7 252.5 L686.4 251.1 L689.3 246.6 L689.7 245.3 L690.0 243.0 L689.8 240.1 L688.8 235.5 L688.1 233.3 L686.8 229.6 L685.7 226.4 L684.7 223.9 L682.4 219.4 L679.5 215.0 L677.2 212.5 L672.5 209.7 L670.0 208.8 L666.3 208.3 L663.1 208.2 L659.5 208.5 L656.1 209.2 L655.8 209.3 L651.1 211.1 L646.3 213.4 L643.2 214.8 L639.4 216.6 L636.1 218.0 L630.6 220.6 L605.5 231.7 L601.4 233.5 L595.3 236.0 L587.6 239.2 L581.7 241.7 L575.3 244.3 L568.1 246.7 L558.1 249.1 L550.9 249.9 L546.6 250.1 L541.9 250.3 L533.2 250.6 L527.9 250.9 Z" fill="none" stroke="#f2f2f2" stroke-width="7" stroke-linejoin="round" stroke-linecap="round"/>
  <circle cx="520.0" cy="251.4" r="9" fill="#E10600"/>
  <text x="380" y="798" fill="#c9c7ca" font-family="ui-monospace, Menlo, monospace" font-size="26" letter-spacing="1.5" text-anchor="middle">IMOLA · ITALY</text>
</svg>