<svg xmlns="http://www.w3.org/2000/svg" width="760" height="820" viewBox="0 0 760 820">
  <rect width="760" height="820" rx="20" fill="#1a181b"/>
  <path d="M550.9 313.6 L546.6 320.3 L544.3 324.1 L536.6 336.0 L531.9 343.6 L526.6 351.9 L517.4 366.3 L507.8 381.5 L496.1 399.8 L494.2 402.9 L485.9 415.9 L482.1 422.0 L476.3 430.9 L468.8 442.3 L466.3 446.1 L460.3 455.2 L455.7 462.0 L447.1 475.0 L441.0 484.1 L431.3 498.6 L422.1 512.2 L416.4 520.6 L414.4 523.7 L407.8 533.6 L403.6 539.7 L399.0 546.6 L389.8 560.7 L387.5 564.7 L381.4 574.9 L376.6 583.3 L370.5 594.0 L365.2 603.6 L356.4 619.4 L349.5 631.0 L344.4 638.6 L340.9 643.4 L334.2 651.4 L331.9 653.7 L327.5 657.7 L323.7 660.5 L315.0 664.6 L311.2 665.3 L305.5 665.2 L299.6 663.9 L291.9 660.7 L288.5 659.1 L278.3 654.8 L272.9 653.5 L264.2 653.7 L256.8 655.8 L248.6 659.8 L241.6 664.2 L236.5 667.7 L233.5 669.9 L225.0 675.7 L215.3 681.4 L206.1 685.8 L201.0 687.5 L194.9 689.0 L185.3 690.0 L176.2 689.5 L167.3 687.7 L160.6 685.5 L154.6 682.8 L147.7 678.5 L143.3 675.0 L138.5 670.1 L129.7 656.2 L126.6 648.6 L124.3 639.0 L123.1 629.2 L122.9 619.9 L123.5 609.8 L124.1 604.4 L126.0 592.8 L126.9 588.6 L128.6 581.6 L131.6 571.5 L134.9 563.3 L137.8 557.5 L141.0 551.8 L146.8 542.8 L151.1 536.7 L158.8 526.0 L163.4 519.4 L169.4 509.2 L176.6 497.0 L178.8 493.4 L182.6 487.5 L187.6 480.0 L196.4 467.3 L215.0 447.9 L220.7 445.0 L229.6 443.2 L232.8 443.2 L237.4 443.7 L240.9 444.8 L250.8 450.2 L252.5 451.7 L255.2 454.5 L261.4 463.3 L263.8 468.3 L265.2 472.2 L266.6 477.3 L267.3 482.2 L267.6 487.8 L266.7 497.7 L265.4 503.0 L263.5 508.4 L260.9 514.2 L256.5 521.6 L250.7 529.9 L245.9 536.6 L241.8 542.2 L238.0 547.3 L234.2 552.5 L229.1 559.5 L224.4 565.9 L219.1 573.4 L212.5 583.1 L209.7 587.9 L207.3 592.6 L204.3 600.9 L203.4 606.6 L203.5 609.7 L204.3 613.6 L207.1 618.9 L209.4 621.3 L213.9 624.1 L218.3 625.3 L225.7 625.5 L229.4 624.9 L235.5 623.0 L239.6 621.3 L246.8 617.7 L253.3 614.2 L258.4 611.4 L265.3 607.8 L269.4 605.7 L281.1 600.3 L284.7 598.8 L293.2 595.3 L299.4 592.6 L311.7 586.0 L315.9 583.4 L323.0 578.3 L331.9 570.5 L334.0 568.4 L342.0 559.5 L346.2 554.1 L350.7 547.9 L355.7 540.7 L357.2 538.5 L361.9 531.7 L367.5 522.7 L370.6 514.5 L371.1 512.1 L371.6 505.3 L371.4 500.2 L370.8 495.8 L369.7 492.2 L368.5 489.6 L363.0 482.8 L355.8 477.3 L347.6 471.1 L342.9 466.6 L339.0 461.7 L335.9 456.8 L333.7 452.7 L328.8 442.0 L325.8 435.5 L323.6 430.7 L320.1 423.3 L317.5 418.1 L315.0 412.6 L311.3 404.9 L305.9 393.6 L301.2 383.5 L299.0 377.9 L295.7 364.2 L295.5 353.0 L296.8 342.9 L299.3 333.8 L303.4 323.8 L304.1 322.5 L310.7 313.1 L319.9 305.9 L333.4 299.9 L336.3 298.8 L345.6 295.0 L359.7 288.5 L366.8 285.1 L376.3 280.7 L383.5 277.2 L391.7 273.4 L405.8 266.7 L414.1 262.7 L425.0 257.3 L434.0 252.6 L443.0 247.8 L456.5 240.6 L466.4 235.3 L475.6 230.4 L483.9 225.9 L490.1 222.7 L509.3 212.9 L512.4 211.4 L520.6 208.0 L529.5 204.4 L536.6 201.5 L545.2 197.7 L549.7 195.2 L550.9 194.5 L554.8 191.5 L559.7 184.9 L561.0 181.0 L561.1 175.1 L560.0 170.2 L557.7 165.1 L555.7 162.0 L552.8 158.5 L550.1 156.0 L547.0 153.9 L543.2 152.0 L534.9 149.8 L518.9 149.6 L508.4 152.3 L500.3 155.9 L495.8 158.6 L493.4 160.1 L487.0 164.5 L482.6 167.7 L477.6 170.7 L472.5 173.3 L463.5 176.5 L459.1 177.4 L452.2 177.9 L450.9 177.9 L444.1 176.8 L440.7 175.7 L435.3 172.4 L432.6 169.6 L430.5 166.5 L430.1 165.8 L428.3 161.8 L427.1 157.2 L426.8 154.2 L427.2 146.5 L428.2 142.2 L430.0 137.1 L431.9 133.2 L433.5 130.5 L439.3 123.0 L443.6 118.8 L447.3 115.6 L451.6 112.1 L461.9 104.1 L467.2 99.7 L472.1 95.5 L481.8 87.3 L486.0 83.9 L493.4 78.5 L500.1 74.7 L505.3 72.5 L517.0 70.0 L527.5 70.4 L534.2 71.7 L540.1 73.4 L543.6 74.7 L554.9 79.8 L560.3 82.8 L567.6 87.3 L573.6 91.1 L578.9 94.5 L595.2 104.9 L602.0 109.3 L610.1 114.9 L622.0 125.3 L629.3 134.1 L632.2 139.4 L634.4 145.1 L635.5 148.7 L637.1 159.1 L635.8 174.7 L633.4 182.7 L627.8 194.1 L623.5 201.4 L619.7 207.4 L612.5 218.6 L611.1 220.5 L601.5 235.3 L596.6 242.9 L593.9 247.0 L589.4 254.0 L583.0 263.7 L579.4 269.4 L572.1 280.5 L564.7 292.0 L557.8 302.8 L553.5 309.4 Z" fill="none" stroke="#f2f2f2" stroke-width="7" stroke-linejoin="round" stroke-linecap="round"/>
  <circle cx="550.9" cy="313.6" r="9" fill="#E10600"/>
  <text x="380" y="798" fill="#c9c7ca" font-family="ui-monospace, Menlo, monospace" font-size="26" letter-spacing="1.5" text-anchor="middle">BARCELONA · SPAIN</text>
</svg>