<svg xmlns="http://www.w3.org/2000/svg" width="760" height="820" viewBox="0 0 760 820">
  <rect width="760" height="820" rx="20" fill="#1a181b"/>
  <path d="M466.4 619.3 L465.4 628.8 L464.5 636.4 L463.8 643.0 L463.4 650.4 L463.6 653.8 L464.5 658.8 L465.3 661.0 L465.7 661.7 L467.2 664.1 L469.4 666.5 L472.0 668.6 L473.9 669.8 L475.3 670.7 L477.6 671.9 L479.6 673.0 L482.2 675.3 L483.1 677.5 L483.2 678.9 L482.9 681.2 L482.5 682.6 L482.1 683.7 L480.9 685.8 L480.1 686.9 L478.8 688.0 L477.1 688.9 L475.5 689.4 L472.0 689.9 L469.1 690.0 L466.0 689.9 L462.4 689.6 L459.6 689.2 L455.3 688.2 L453.8 687.8 L451.4 687.1 L446.0 685.4 L443.0 684.3 L439.1 682.8 L437.1 682.0 L433.6 680.4 L425.9 675.9 L423.5 674.3 L419.3 671.4 L416.9 669.6 L413.0 666.8 L408.8 663.5 L405.7 661.0 L402.2 658.2 L396.3 653.5 L391.6 649.6 L388.0 646.3 L384.7 642.7 L383.6 641.2 L382.3 639.2 L381.2 636.4 L380.8 632.3 L380.8 632.3 L381.1 629.5 L381.6 625.5 L379.4 613.1 L377.7 610.4 L375.9 607.9 L372.4 603.5 L370.0 600.7 L366.6 596.5 L364.2 593.5 L361.2 590.2 L356.6 585.5 L351.7 581.4 L346.9 577.5 L344.0 575.3 L337.7 569.6 L332.7 562.8 L329.9 556.4 L326.8 546.4 L326.1 540.9 L325.8 534.4 L325.9 528.3 L326.1 522.2 L326.3 518.0 L326.5 514.3 L326.9 507.5 L326.9 504.6 L326.2 498.4 L325.1 494.4 L324.2 492.4 L322.8 490.3 L320.0 487.7 L317.7 486.7 L314.4 486.2 L312.6 486.2 L311.1 486.3 L308.4 486.5 L306.6 486.6 L303.3 486.5 L299.9 485.8 L296.0 483.8 L294.3 482.4 L292.2 480.4 L290.2 478.1 L289.0 476.4 L287.7 474.2 L285.5 469.7 L284.6 467.1 L283.2 461.5 L282.6 458.7 L281.7 452.4 L281.3 449.0 L280.4 441.0 L279.9 436.4 L279.4 431.8 L278.8 424.8 L278.5 420.7 L278.1 415.6 L277.6 407.7 L277.3 402.9 L277.0 395.1 L276.8 387.2 L276.8 382.8 L276.8 378.3 L277.0 372.2 L277.1 368.6 L277.5 363.0 L277.9 357.3 L279.0 346.5 L279.9 339.2 L280.7 333.9 L282.6 323.5 L282.9 322.1 L284.8 313.3 L286.3 307.1 L288.5 298.0 L289.7 292.8 L290.5 289.2 L291.5 284.9 L292.3 282.1 L293.7 278.1 L294.7 276.1 L297.0 273.5 L299.4 272.2 L301.5 271.6 L304.7 270.9 L309.6 268.8 L311.3 267.8 L316.7 262.7 L318.4 260.2 L320.0 257.4 L322.2 252.1 L323.2 249.0 L324.3 245.5 L325.8 239.7 L327.1 234.3 L327.9 231.2 L329.1 225.9 L331.1 216.9 L332.1 211.3 L333.1 205.5 L333.8 201.5 L335.0 194.1 L335.8 188.5 L337.1 178.1 L337.4 175.1 L337.9 168.7 L338.3 161.2 L338.5 153.7 L338.6 149.1 L338.5 141.2 L338.5 138.1 L338.2 131.4 L337.7 126.8 L337.0 121.6 L335.2 112.9 L333.6 106.4 L332.4 101.0 L330.4 92.4 L329.5 88.2 L329.0 85.5 L328.1 80.4 L327.9 78.3 L327.9 76.2 L328.5 73.6 L330.3 71.3 L331.1 70.7 L333.7 70.0 L334.8 70.0 L336.4 70.6 L337.2 71.1 L337.7 71.5 L338.6 72.5 L339.9 74.6 L340.3 75.5 L341.0 77.3 L341.8 79.8 L342.6 83.3 L342.9 85.3 L343.1 86.9 L343.5 91.4 L343.8 95.8 L343.9 96.9 L344.3 99.8 L345.6 106.2 L346.7 109.9 L348.2 114.2 L350.1 119.1 L351.8 123.1 L354.0 128.2 L357.0 135.2 L358.8 139.7 L360.8 144.3 L363.2 149.7 L367.1 158.8 L369.2 163.6 L372.9 172.1 L375.6 178.4 L378.2 184.9 L380.5 190.5 L383.5 198.1 L385.0 201.9 L386.8 206.7 L388.9 213.1 L390.4 217.6 L393.1 226.6 L394.1 230.2 L395.4 234.8 L398.0 245.1 L400.0 252.9 L400.5 255.0 L402.2 262.4 L404.6 272.4 L406.8 282.0 L408.8 290.6 L410.3 297.0 L411.6 302.4 L412.6 306.7 L414.4 314.2 L415.4 318.6 L416.6 324.0 L418.4 331.6 L420.1 339.2 L421.7 346.3 L423.9 355.9 L425.4 362.5 L427.9 372.8 L430.8 384.9 L432.6 392.6 L433.9 398.0 L438.9 419.3 L439.9 423.4 L441.0 429.4 L441.4 432.9 L441.2 437.4 L440.6 439.1 L439.0 442.4 L437.5 444.9 L435.8 448.0 L435.1 450.3 L434.6 453.6 L434.7 459.2 L434.9 462.2 L435.3 464.6 L436.2 469.8 L437.1 473.4 L438.0 476.9 L438.8 479.7 L440.0 483.7 L440.9 487.1 L441.8 490.2 L443.0 494.2 L445.3 502.7 L447.3 510.7 L447.7 512.0 L448.9 516.9 L449.9 520.9 L452.0 529.0 L453.1 533.2 L454.9 540.1 L455.9 543.9 L457.5 550.1 L459.5 557.8 L459.9 559.2 L462.9 571.2 L463.9 575.7 L464.7 579.6 L466.2 588.8 Z" fill="none" stroke="#f2f2f2" stroke-width="7" stroke-linejoin="round" stroke-linecap="round"/>
  <circle cx="466.4" cy="619.3" r="9" fill="#E10600"/>
  <text x="380" y="798" fill="#c9c7ca" font-family="ui-monospace, Menlo, monospace" font-size="26" letter-spacing="1.5" text-anchor="middle">MONTREAL · CANADA</text>
</svg>