<svg xmlns="http://www.w3.org/2000/svg" width="760" height="820" viewBox="0 0 760 820">
  <rect width="760" height="820" rx="20" fill="#1a181b"/>
  <path d="M517.6 529.8 L511.5 531.4 L498.2 535.0 L493.5 536.3 L482.5 539.3 L475.4 541.1 L469.0 542.9 L453.7 547.0 L439.1 550.9 L427.7 554.0 L420.4 556.0 L406.9 559.8 L392.3 563.9 L384.3 566.1 L375.0 568.6 L361.4 572.3 L354.4 574.1 L345.0 576.2 L341.5 576.7 L336.9 576.8 L332.5 576.5 L328.8 575.7 L324.6 574.1 L321.1 572.1 L318.1 569.6 L314.1 564.7 L312.6 561.9 L310.6 558.0 L308.7 554.5 L306.0 549.6 L294.3 532.3 L289.7 525.4 L288.1 523.1 L282.3 514.3 L279.6 510.2 L274.1 501.8 L268.7 493.6 L265.7 489.1 L262.7 484.6 L258.1 477.5 L251.4 467.4 L246.2 459.5 L241.8 452.6 L238.1 446.7 L234.9 441.5 L228.4 430.0 L223.5 421.0 L219.5 413.2 L215.2 404.6 L211.9 398.0 L204.6 383.3 L198.5 370.6 L191.2 355.3 L189.1 350.6 L185.1 342.0 L179.8 331.2 L173.9 319.5 L163.8 303.0 L156.8 292.9 L147.5 281.3 L141.6 274.8 L133.1 265.9 L130.6 263.4 L119.7 252.4 L114.1 247.0 L108.7 241.7 L101.9 235.1 L96.7 230.1 L89.3 223.1 L85.0 219.0 L82.1 216.3 L76.1 210.6 L73.3 207.3 L71.8 204.9 L70.5 202.0 L70.0 199.3 L70.0 197.5 L70.4 195.7 L71.0 194.3 L73.6 191.2 L75.0 190.2 L78.2 188.6 L80.6 187.8 L83.0 187.3 L87.6 186.5 L89.8 186.2 L92.0 185.9 L96.7 185.3 L99.4 185.0 L102.8 184.7 L106.1 184.3 L111.8 183.9 L116.9 183.6 L120.9 183.4 L129.8 183.2 L134.5 183.2 L140.0 183.2 L145.5 183.4 L155.0 183.9 L163.0 184.5 L171.9 185.4 L178.5 186.1 L186.5 187.1 L192.7 188.0 L199.0 188.9 L214.8 191.6 L220.6 192.7 L235.5 195.6 L253.9 199.3 L264.0 201.4 L275.5 203.6 L284.3 205.4 L293.2 207.1 L303.9 208.9 L312.2 210.1 L319.0 211.0 L327.4 212.2 L340.9 214.1 L341.8 214.2 L361.3 216.5 L369.8 217.2 L381.0 217.8 L390.5 218.1 L400.7 218.5 L412.7 218.8 L420.6 219.0 L427.2 219.1 L432.4 219.3 L442.0 219.5 L447.3 219.9 L452.8 221.1 L455.4 222.1 L459.3 224.1 L462.7 226.8 L464.5 229.0 L466.5 234.8 L466.9 240.2 L466.9 240.8 L466.5 243.8 L465.7 246.3 L464.2 250.1 L461.8 254.5 L461.2 255.4 L457.8 260.2 L453.7 265.4 L449.1 270.3 L442.8 275.9 L436.8 280.2 L430.2 284.1 L423.0 287.7 L416.2 290.3 L405.5 293.5 L393.5 295.9 L384.3 296.7 L376.8 296.6 L369.2 296.1 L362.2 295.4 L357.3 294.7 L349.6 293.6 L339.1 291.8 L327.7 289.7 L314.2 287.1 L304.1 285.6 L295.1 284.5 L286.7 284.2 L278.2 284.8 L270.7 286.2 L263.3 288.7 L257.7 291.8 L252.5 296.1 L247.8 301.6 L244.6 307.3 L242.4 314.4 L241.6 319.5 L241.4 328.4 L241.7 332.6 L243.6 342.3 L247.1 352.7 L252.6 363.0 L255.9 368.5 L261.9 378.2 L266.3 385.3 L270.3 391.4 L274.0 397.0 L277.6 401.8 L283.0 408.2 L290.8 415.3 L295.8 418.6 L298.9 420.3 L306.4 422.8 L311.5 423.4 L317.2 423.0 L322.9 421.7 L332.2 418.0 L337.2 414.9 L343.2 410.4 L350.8 403.7 L357.4 397.7 L366.1 389.8 L370.0 386.3 L375.7 381.5 L387.0 373.7 L391.9 371.1 L397.7 368.7 L414.0 365.0 L419.1 364.4 L432.5 363.7 L440.7 363.5 L443.8 363.4 L452.9 363.2 L462.1 363.1 L469.1 363.0 L479.2 362.9 L488.6 362.8 L504.5 362.7 L511.8 362.7 L518.4 362.6 L532.2 362.3 L539.5 362.2 L555.8 361.7 L570.5 361.3 L580.3 361.0 L590.9 360.6 L603.0 360.4 L609.5 360.4 L623.6 361.0 L632.5 362.0 L640.9 363.8 L645.4 365.1 L654.9 369.7 L660.2 373.4 L665.3 378.4 L667.6 381.3 L671.0 386.9 L675.2 399.7 L676.3 403.6 L678.5 410.7 L681.2 419.6 L683.8 428.1 L685.8 434.5 L687.4 439.8 L689.0 446.4 L690.0 454.1 L689.9 459.6 L689.7 461.4 L686.9 469.0 L683.7 473.9 L679.7 478.2 L672.1 483.3 L666.7 486.0 L659.5 489.4 L652.0 492.6 L647.6 494.2 L640.1 496.7 L630.9 499.4 L615.6 503.4 L606.9 505.6 L586.2 511.2 L580.5 512.8 L570.6 515.5 L563.3 517.4 L555.7 519.5 L548.3 521.5 L537.0 524.5 L529.4 526.6 Z" fill="none" stroke="#f2f2f2" stroke-width="7" stroke-linejoin="round" stroke-linecap="round"/>
  <circle cx="517.6" cy="529.8" r="9" fill="#E10600"/>
  <text x="380" y="798" fill="#c9c7ca" font-family="ui-monospace, Menlo, monospace" font-size="26" letter-spacing="1.5" text-anchor="middle">RED BULL RING · AUSTRIA</text>
</svg>