<svg xmlns="http://www.w3.org/2000/svg" width="760" height="820" viewBox="0 0 760 820">
  <rect width="760" height="820" rx="20" fill="#1a181b"/>
  <path d="M171.1 291.0 L176.3 278.4 L179.9 269.5 L186.7 252.9 L192.7 238.3 L200.3 219.5 L207.6 201.3 L212.2 188.5 L217.3 171.1 L220.3 160.2 L225.6 142.2 L227.7 136.8 L230.6 130.9 L234.8 124.8 L239.0 120.5 L246.4 116.3 L250.5 115.2 L257.4 114.7 L263.1 115.8 L264.7 116.3 L268.2 117.9 L274.2 123.3 L277.2 127.8 L278.6 130.8 L280.9 141.1 L280.8 147.5 L279.9 153.2 L278.3 159.6 L276.2 166.3 L273.1 175.2 L269.8 184.0 L269.0 185.9 L266.6 191.7 L263.6 198.3 L259.2 207.9 L255.0 217.8 L253.5 221.5 L248.6 237.6 L247.4 249.9 L247.7 261.0 L248.9 274.0 L249.3 286.9 L247.0 297.9 L242.2 306.1 L235.2 312.5 L229.6 316.0 L221.8 319.6 L213.1 322.9 L203.1 326.5 L195.8 329.5 L186.9 334.2 L181.1 339.4 L177.4 345.4 L175.5 355.8 L176.6 362.1 L180.6 369.2 L188.2 374.9 L190.6 375.9 L196.1 377.3 L208.0 376.6 L219.8 373.4 L227.6 371.0 L238.9 367.1 L243.1 365.5 L250.5 362.7 L264.1 358.1 L270.0 356.2 L281.6 353.0 L288.9 351.5 L303.9 349.4 L312.5 348.9 L326.5 348.8 L334.6 349.3 L339.1 349.8 L353.6 351.8 L363.6 353.7 L372.8 355.4 L385.0 357.7 L397.1 359.5 L405.7 360.4 L417.3 360.5 L431.8 358.8 L440.4 356.8 L456.2 350.9 L466.1 346.0 L473.1 342.0 L485.1 334.6 L499.8 326.0 L513.4 319.6 L525.7 315.6 L531.6 314.3 L540.0 312.9 L550.5 312.0 L558.1 311.5 L578.1 311.0 L598.0 311.1 L611.1 311.4 L620.0 311.9 L629.8 312.7 L649.3 317.0 L662.5 323.7 L673.0 332.5 L680.7 342.5 L685.0 350.5 L688.0 358.8 L690.0 370.3 L689.6 385.7 L687.6 395.5 L685.0 403.1 L679.0 414.6 L672.6 424.8 L666.2 434.9 L662.3 441.1 L657.4 448.9 L653.1 456.0 L643.3 474.0 L637.0 487.6 L634.4 493.6 L630.9 501.4 L627.9 508.1 L622.5 518.1 L617.7 524.7 L613.7 528.6 L607.0 532.9 L596.9 536.5 L587.2 538.0 L579.1 538.5 L566.9 538.1 L557.9 537.2 L545.7 535.0 L537.6 532.9 L523.4 527.8 L511.4 521.7 L502.8 515.5 L493.4 506.3 L490.1 501.7 L488.0 497.9 L486.3 491.6 L486.3 488.1 L489.1 480.8 L491.4 477.6 L494.4 474.0 L500.3 468.6 L504.9 465.4 L508.8 463.0 L510.5 462.0 L514.1 460.2 L518.1 458.3 L528.3 454.8 L534.0 453.3 L536.2 452.8 L540.9 451.9 L551.0 450.5 L558.8 449.3 L566.2 448.0 L577.3 445.4 L584.2 443.4 L595.2 438.8 L601.7 434.4 L607.7 427.2 L610.4 419.5 L610.7 414.4 L609.9 407.6 L609.0 404.1 L607.0 399.7 L604.5 395.7 L601.2 391.8 L596.9 388.2 L593.5 386.0 L591.5 385.0 L587.9 383.5 L580.5 381.4 L574.2 380.1 L569.4 379.4 L563.9 378.6 L552.6 377.0 L541.6 375.7 L535.6 375.1 L524.2 374.3 L514.6 374.0 L499.1 374.5 L487.1 375.4 L475.5 376.6 L459.6 378.9 L451.1 380.5 L441.7 382.5 L427.8 385.9 L422.5 387.2 L408.4 391.2 L400.5 393.6 L389.8 397.0 L373.4 402.4 L356.8 408.2 L340.5 414.2 L329.5 418.4 L323.2 420.9 L311.6 425.7 L305.1 428.4 L297.0 432.0 L285.9 437.4 L282.5 439.1 L274.7 442.8 L269.3 444.2 L262.7 443.3 L260.7 442.2 L256.4 438.7 L252.0 434.2 L248.4 431.4 L243.6 428.9 L238.9 427.5 L229.3 427.4 L225.1 428.4 L219.8 431.6 L217.3 433.8 L213.6 439.2 L212.0 443.5 L211.4 450.4 L212.0 457.2 L212.6 461.3 L213.2 465.5 L214.3 472.1 L215.5 478.6 L216.9 486.3 L218.6 496.3 L219.6 502.2 L220.7 508.3 L221.9 515.4 L223.9 526.4 L225.6 536.2 L227.1 544.7 L228.4 551.9 L230.2 561.6 L233.2 576.6 L235.0 585.9 L236.7 595.7 L237.1 599.3 L237.4 610.3 L236.0 617.8 L232.3 626.6 L228.9 631.5 L222.8 637.5 L216.4 641.5 L204.2 644.9 L196.6 645.3 L182.0 644.8 L168.6 644.2 L156.5 643.3 L154.0 643.1 L145.0 641.6 L135.0 639.0 L125.9 635.8 L114.8 630.8 L103.5 623.7 L88.8 610.4 L83.7 603.9 L80.1 598.6 L73.5 585.4 L70.0 572.0 L71.3 549.1 L72.9 542.7 L77.7 530.1 L80.8 522.8 L85.5 511.3 L88.7 503.2 L92.2 494.1 L97.9 479.3 L101.1 471.1 L104.0 463.6 L110.1 447.7 L115.6 433.6 L121.4 418.5 L126.6 405.0 L130.9 393.8 L136.8 378.5 L140.9 367.9 L146.1 354.4 L149.5 345.6 L153.3 335.9 L155.8 329.5 L159.9 318.7 L165.9 303.6 Z" fill="none" stroke="#f2f2f2" stroke-width="7" stroke-linejoin="round" stroke-linecap="round"/>
  <circle cx="171.1" cy="291.0" r="9" fill="#E10600"/>
  <text x="380" y="798" fill="#c9c7ca" font-family="ui-monospace, Menlo, monospace" font-size="26" letter-spacing="1.5" text-anchor="middle">ZANDVOORT · NETHERLANDS</text>
</svg>