<svg xmlns="http://www.w3.org/2000/svg" width="760" height="820" viewBox="0 0 760 820">
  <rect width="760" height="820" rx="20" fill="#1a181b"/>
  <path d="M118.9 439.3 L122.0 441.7 L128.5 446.7 L134.7 451.4 L140.4 455.8 L144.5 458.9 L151.5 464.3 L157.5 468.9 L162.0 472.3 L166.9 476.1 L171.8 479.9 L178.5 485.0 L184.5 489.5 L188.7 492.8 L194.8 497.4 L198.2 500.0 L205.2 505.4 L214.6 512.6 L219.5 516.3 L226.1 521.3 L230.0 524.3 L232.2 526.0 L239.5 531.8 L244.5 535.7 L249.7 539.7 L259.4 547.6 L262.7 550.3 L266.1 553.1 L267.5 554.3 L272.4 557.8 L275.6 559.0 L278.6 559.6 L281.6 559.6 L283.4 559.0 L284.9 558.0 L286.0 556.9 L287.6 553.2 L287.7 551.5 L287.5 548.5 L287.3 546.3 L286.8 543.4 L286.4 541.0 L285.9 538.7 L285.3 536.4 L284.3 533.8 L282.5 529.7 L280.6 525.7 L278.3 520.8 L276.5 516.5 L274.3 510.7 L272.9 505.9 L271.8 501.8 L271.0 494.4 L272.5 484.0 L274.0 478.7 L278.1 470.2 L280.7 466.1 L285.5 460.7 L292.0 455.3 L297.0 452.0 L306.0 446.9 L311.9 443.9 L319.3 440.0 L329.1 433.2 L334.6 429.0 L339.0 425.3 L343.2 420.4 L347.0 413.7 L351.1 406.6 L354.5 400.7 L362.1 392.1 L366.3 389.3 L372.0 386.7 L379.3 382.1 L381.5 379.5 L384.5 374.7 L386.9 368.5 L389.0 359.7 L390.9 352.6 L393.5 347.0 L395.4 343.9 L398.9 339.8 L403.2 335.9 L408.2 332.4 L414.0 329.3 L419.3 327.3 L424.0 326.3 L431.4 326.5 L440.2 329.1 L445.3 331.2 L449.5 333.3 L453.4 335.5 L455.7 336.8 L464.0 339.7 L470.4 340.8 L474.2 340.5 L477.4 339.3 L480.3 337.8 L482.7 336.3 L487.3 333.0 L489.9 330.7 L493.6 326.4 L498.9 319.8 L502.2 316.3 L504.0 314.3 L509.5 310.4 L511.9 309.4 L514.7 308.8 L518.5 308.7 L523.6 309.7 L524.8 310.2 L528.1 311.9 L530.3 313.5 L532.4 315.2 L535.7 318.6 L539.3 321.8 L543.6 323.6 L550.5 324.3 L553.8 324.0 L558.5 323.5 L561.7 323.1 L567.2 321.9 L570.7 321.0 L577.0 319.4 L583.3 317.8 L587.2 316.7 L594.0 314.4 L598.9 312.3 L606.1 308.9 L612.4 305.2 L617.1 300.9 L625.3 292.2 L627.9 289.1 L634.6 280.7 L643.4 269.6 L645.9 266.6 L651.1 260.4 L655.8 254.6 L660.6 248.6 L663.7 244.5 L667.7 239.7 L670.9 236.0 L675.1 230.9 L677.6 228.1 L679.6 225.8 L683.9 220.8 L686.9 216.6 L688.6 213.3 L689.6 210.8 L690.0 209.0 L689.8 205.5 L688.8 203.7 L686.1 201.6 L683.9 200.7 L681.0 200.4 L680.7 200.4 L679.4 200.4 L675.6 200.7 L673.5 201.0 L671.8 201.3 L668.4 202.2 L664.1 203.6 L662.4 204.2 L660.1 205.0 L654.0 207.2 L651.9 208.0 L647.1 209.8 L644.2 210.8 L638.8 212.8 L636.0 213.7 L630.7 215.6 L629.3 216.1 L619.4 219.6 L614.6 221.2 L609.4 222.9 L606.7 223.8 L602.7 225.1 L591.2 228.4 L585.5 230.1 L583.6 230.6 L578.8 231.9 L570.6 234.2 L564.2 235.9 L562.8 236.3 L557.3 237.7 L548.8 239.9 L541.6 241.7 L534.9 243.3 L527.7 245.1 L521.9 246.4 L517.2 247.5 L512.4 248.5 L509.7 249.1 L500.4 251.2 L493.4 252.7 L486.3 254.2 L478.7 255.7 L473.5 256.7 L463.8 258.5 L459.1 259.4 L449.4 261.2 L444.9 261.9 L438.7 263.0 L430.8 264.3 L427.4 264.9 L421.2 265.9 L414.4 266.8 L408.1 267.6 L404.7 267.9 L394.4 269.1 L389.8 269.6 L380.1 270.6 L373.8 271.2 L362.3 272.3 L355.0 273.0 L347.3 273.7 L344.0 274.1 L338.3 274.7 L332.8 275.3 L325.8 276.0 L321.5 276.3 L312.5 277.2 L308.1 277.6 L305.4 278.0 L302.4 278.6 L298.1 280.9 L295.4 283.2 L293.9 286.4 L293.8 286.7 L293.6 289.4 L294.2 292.2 L295.1 294.5 L295.8 296.1 L296.6 297.5 L299.3 301.4 L300.9 303.5 L303.1 305.7 L305.5 308.1 L307.5 310.0 L310.7 313.0 L312.7 314.9 L317.0 319.1 L328.3 334.9 L329.0 338.4 L329.3 340.7 L329.2 342.5 L328.7 345.4 L327.6 348.1 L325.8 350.6 L324.6 352.0 L323.3 352.9 L321.1 353.8 L319.4 354.1 L316.3 354.3 L312.6 354.3 L310.1 353.9 L305.5 352.0 L300.7 348.4 L299.1 346.7 L296.8 344.3 L294.0 339.9 L291.3 335.0 L289.8 332.2 L287.6 327.9 L285.8 325.1 L280.8 319.5 L276.3 315.5 L273.6 313.8 L270.6 312.4 L265.2 311.5 L261.1 312.1 L258.2 313.4 L256.8 314.5 L255.2 316.3 L254.4 317.8 L254.1 319.0 L254.1 320.5 L254.3 322.0 L255.1 324.9 L256.0 327.1 L257.0 328.8 L258.0 330.3 L260.7 334.1 L262.7 336.7 L265.4 340.2 L267.8 343.3 L270.5 346.5 L273.7 350.6 L276.7 354.8 L279.2 359.1 L281.3 363.5 L282.6 367.6 L284.2 374.0 L284.6 377.1 L284.9 382.4 L283.9 391.6 L282.5 396.4 L278.1 405.4 L276.1 407.9 L270.9 413.1 L269.1 414.4 L261.5 418.4 L256.3 420.5 L249.0 422.6 L248.6 422.7 L232.1 422.1 L225.8 420.8 L216.5 417.2 L207.4 411.7 L204.3 409.3 L197.5 401.5 L192.1 393.5 L187.2 384.7 L186.2 382.9 L178.9 371.6 L173.3 365.1 L167.4 360.2 L164.1 358.1 L160.1 356.3 L141.0 357.0 L137.6 358.4 L129.6 362.2 L121.3 366.1 L116.8 368.2 L114.0 369.5 L108.5 371.8 L101.7 374.5 L94.8 377.4 L88.0 380.2 L85.2 381.5 L82.4 382.8 L79.6 384.2 L75.6 387.1 L73.3 389.3 L71.9 391.1 L70.7 393.3 L70.2 395.0 L70.0 397.4 L70.2 399.0 L70.8 400.8 L71.6 402.7 L73.9 406.0 L78.1 410.6 L79.7 412.0 L83.8 415.1 L85.7 416.4 L88.4 418.2 L93.4 421.3 L97.5 423.9 L100.9 426.0 L104.1 428.1 L106.4 429.7 L109.9 432.4 L113.6 435.2 Z" fill="none" stroke="#f2f2f2" stroke-width="7" stroke-linejoin="round" stroke-linecap="round"/>
  <circle cx="118.9" cy="439.3" r="9" fill="#E10600"/>
  <text x="380" y="798" fill="#c9c7ca" font-family="ui-monospace, Menlo, monospace" font-size="26" letter-spacing="1.5" text-anchor="middle">AUSTIN · USA</text>
</svg>