<svg xmlns="http://www.w3.org/2000/svg" width="760" height="820" viewBox="0 0 760 820">
  <rect width="760" height="820" rx="20" fill="#1a181b"/>
  <path d="M183.2 164.1 L189.6 165.2 L199.4 166.9 L206.6 168.1 L217.9 169.9 L223.3 170.8 L233.6 172.5 L249.6 174.9 L262.3 176.8 L270.9 178.1 L276.6 179.0 L292.5 181.4 L306.2 183.5 L318.7 185.3 L323.9 186.1 L331.3 187.1 L349.2 189.5 L361.3 191.0 L371.9 192.2 L378.0 192.9 L388.6 194.1 L396.5 195.0 L408.0 196.3 L409.5 196.5 L417.2 197.4 L430.3 198.9 L441.0 200.1 L454.8 201.7 L467.2 203.2 L476.4 204.3 L486.4 205.6 L499.5 207.4 L508.0 208.5 L522.7 210.5 L532.1 211.7 L552.3 214.3 L564.2 215.9 L568.8 216.5 L580.9 218.0 L590.3 219.3 L598.8 220.4 L605.0 221.2 L611.0 222.0 L622.5 223.5 L627.8 224.1 L635.6 225.1 L644.1 226.4 L648.4 227.2 L654.0 228.6 L660.8 231.4 L663.9 233.3 L667.5 236.5 L670.5 241.0 L671.7 244.0 L672.3 246.6 L672.7 250.0 L672.6 252.9 L672.2 255.9 L671.3 260.8 L670.8 264.8 L670.7 267.8 L671.2 270.2 L671.9 272.5 L672.8 274.2 L673.9 275.8 L675.3 277.4 L677.2 278.9 L681.1 281.5 L684.7 284.1 L687.0 286.5 L688.4 288.7 L689.6 292.1 L690.0 295.8 L689.9 300.0 L688.4 308.0 L686.9 313.8 L683.9 322.7 L682.4 326.9 L680.3 332.3 L677.0 339.6 L675.0 343.7 L670.9 351.5 L666.7 358.5 L663.2 364.3 L659.9 369.5 L655.8 375.9 L649.2 385.9 L645.2 392.0 L641.8 397.3 L637.1 404.9 L632.8 412.1 L627.8 420.6 L625.2 425.2 L621.1 432.1 L619.7 434.4 L616.2 440.3 L597.6 471.3 L593.1 478.4 L587.6 487.1 L581.7 495.8 L577.8 501.5 L573.2 508.3 L568.6 514.8 L564.3 520.7 L563.0 522.6 L558.5 529.0 L557.1 531.3 L554.4 536.1 L553.3 538.8 L552.5 541.5 L552.1 544.0 L552.0 546.2 L552.3 549.0 L553.9 552.9 L554.9 554.3 L556.3 555.7 L559.6 557.9 L561.3 558.8 L565.0 560.8 L565.9 561.4 L567.3 562.4 L568.8 563.8 L570.1 565.5 L571.0 567.2 L571.6 569.2 L571.6 572.6 L570.4 575.5 L569.5 576.8 L567.6 578.9 L564.2 581.5 L562.0 583.0 L559.8 584.5 L554.8 588.0 L551.5 590.3 L548.4 592.7 L544.2 595.9 L542.2 597.4 L540.3 598.7 L537.4 600.2 L535.3 601.0 L530.9 601.6 L527.7 601.4 L525.1 600.7 L524.2 600.2 L522.0 598.6 L520.1 596.5 L518.8 594.0 L518.1 591.9 L517.4 588.7 L517.2 585.7 L517.3 581.7 L517.6 578.6 L518.5 572.0 L519.5 566.2 L520.2 562.5 L521.5 555.8 L522.7 548.9 L523.7 543.5 L524.8 537.3 L526.5 528.3 L528.3 518.9 L530.6 507.1 L532.3 498.1 L533.4 491.3 L534.3 469.4 L533.2 464.8 L530.7 459.3 L528.2 455.6 L523.9 451.1 L519.7 447.9 L514.5 444.5 L508.4 440.3 L503.0 435.7 L496.0 427.7 L493.2 423.5 L489.6 417.4 L487.1 413.5 L480.1 405.1 L477.4 402.7 L471.5 398.5 L469.3 397.2 L461.5 393.8 L455.2 392.1 L450.1 391.2 L444.5 390.8 L439.9 390.6 L429.0 390.5 L419.8 389.5 L414.8 388.3 L411.4 387.2 L409.0 386.2 L405.2 383.9 L402.1 381.3 L398.1 376.7 L395.2 372.5 L391.0 364.2 L388.7 358.2 L388.0 356.6 L385.3 350.9 L381.4 344.5 L378.0 340.5 L373.4 336.5 L366.2 331.7 L356.5 326.4 L352.0 324.1 L339.3 318.3 L328.7 314.3 L320.5 311.7 L307.3 308.0 L295.4 305.3 L289.0 304.0 L280.5 302.5 L273.3 301.4 L267.9 300.5 L258.2 299.2 L256.2 298.9 L245.9 297.7 L233.4 296.4 L223.6 295.3 L220.1 294.9 L207.4 293.5 L199.7 292.6 L188.9 291.4 L185.5 291.0 L177.3 290.1 L170.5 289.0 L164.0 287.1 L163.0 286.7 L160.0 285.1 L157.0 283.0 L154.7 280.8 L150.9 275.8 L148.7 269.9 L148.0 266.3 L147.5 258.3 L147.5 255.3 L147.8 249.1 L148.3 242.7 L148.5 239.2 L148.6 235.7 L148.8 232.0 L148.5 223.7 L147.9 219.6 L147.1 216.8 L145.8 214.0 L143.9 212.0 L141.8 210.8 L140.1 210.2 L138.5 209.9 L136.8 210.0 L132.6 211.7 L131.3 212.5 L128.8 214.6 L126.8 216.2 L125.1 217.5 L123.3 218.6 L120.5 219.8 L118.2 220.5 L117.5 220.5 L105.8 219.9 L101.8 219.1 L97.4 218.3 L93.3 217.7 L89.6 217.2 L84.9 216.5 L79.9 215.6 L76.7 214.4 L74.9 213.3 L73.0 211.5 L71.2 208.0 L70.2 204.3 L70.0 200.0 L70.3 196.5 L71.3 192.3 L72.7 188.3 L74.5 184.7 L76.7 181.1 L79.4 177.7 L83.2 173.8 L91.3 167.7 L95.1 165.6 L98.0 164.2 L103.7 162.1 L108.9 160.7 L115.8 159.4 L120.0 158.9 L125.8 158.5 L133.0 158.4 L138.5 158.6 L144.2 159.0 L150.2 159.6 L157.0 160.4 L163.9 161.3 Z" fill="none" stroke="#f2f2f2" stroke-width="7" stroke-linejoin="round" stroke-linecap="round"/>
  <circle cx="183.2" cy="164.1" r="9" fill="#E10600"/>
  <text x="380" y="798" fill="#c9c7ca" font-family="ui-monospace, Menlo, monospace" font-size="26" letter-spacing="1.5" text-anchor="middle">MEXICO CITY · MEXICO</text>
</svg>