<svg xmlns="http://www.w3.org/2000/svg" width="760" height="820" viewBox="0 0 760 820">
  <rect width="760" height="820" rx="20" fill="#1a181b"/>
  <path d="M214.1 502.0 L215.1 506.0 L219.2 522.1 L221.8 532.1 L225.3 545.2 L229.0 559.3 L233.6 576.4 L237.1 589.4 L241.5 605.4 L244.8 617.1 L247.1 625.7 L251.9 641.4 L252.9 644.3 L256.0 653.3 L260.5 664.2 L264.7 672.0 L265.5 673.3 L268.2 677.3 L271.5 681.4 L276.0 685.5 L282.1 688.9 L286.8 690.0 L293.0 689.8 L296.2 688.9 L298.9 687.7 L305.8 683.1 L307.9 681.4 L313.0 676.8 L314.0 675.9 L317.5 673.0 L320.8 670.2 L324.9 667.4 L333.0 664.0 L334.4 663.7 L344.6 664.6 L351.0 666.9 L362.0 671.6 L374.1 676.1 L382.8 678.5 L392.3 680.0 L399.3 680.3 L411.7 679.5 L424.3 676.8 L435.3 672.7 L440.9 669.8 L447.8 665.6 L455.8 659.7 L463.8 652.4 L471.0 644.1 L475.4 637.8 L480.0 630.4 L484.3 621.8 L487.7 613.6 L492.1 599.4 L494.9 588.8 L497.3 579.0 L499.5 570.1 L505.1 548.3 L506.7 541.9 L509.7 528.9 L511.5 521.5 L513.0 515.0 L517.8 495.3 L523.2 473.6 L524.9 467.0 L528.5 452.6 L530.7 444.0 L533.7 432.4 L536.5 421.8 L539.0 412.1 L543.1 396.5 L545.6 386.7 L550.1 369.9 L554.0 355.1 L557.7 341.2 L560.4 331.3 L563.9 318.6 L567.0 307.4 L571.6 291.3 L573.7 282.0 L575.0 270.8 L575.0 265.6 L573.5 255.0 L571.6 249.0 L565.4 239.4 L558.2 233.6 L555.8 232.2 L549.5 229.2 L539.9 226.3 L532.3 224.6 L516.1 222.4 L509.6 222.3 L494.9 222.7 L485.7 224.0 L479.7 225.3 L473.7 227.3 L463.3 231.9 L457.7 235.3 L447.5 242.7 L438.7 250.4 L431.0 258.5 L425.2 266.1 L420.6 272.6 L413.5 282.8 L409.3 288.7 L402.8 297.9 L396.4 306.9 L394.9 309.1 L386.8 320.4 L379.5 331.1 L371.2 343.6 L360.5 359.3 L349.9 375.1 L340.3 389.4 L328.8 404.6 L319.8 413.2 L316.6 415.6 L307.1 420.9 L299.0 423.7 L285.9 425.8 L274.4 425.5 L263.4 422.9 L250.7 416.5 L243.4 410.8 L233.3 398.7 L227.7 388.6 L222.8 374.7 L220.3 364.1 L217.5 347.0 L217.0 341.5 L216.8 335.9 L217.4 327.2 L218.5 321.7 L220.6 315.0 L223.5 309.8 L231.1 304.7 L238.0 304.5 L242.5 305.7 L246.7 307.4 L249.3 308.8 L256.0 312.2 L259.4 314.0 L268.7 317.8 L270.6 318.3 L277.3 319.2 L284.6 318.3 L286.2 317.7 L289.9 315.8 L292.4 313.9 L297.3 307.8 L298.9 303.1 L299.7 296.7 L298.9 290.1 L297.1 284.1 L295.4 280.4 L293.1 276.2 L291.0 272.9 L288.6 269.5 L281.9 261.5 L277.4 256.8 L270.5 249.6 L263.0 240.9 L256.9 232.7 L252.6 226.3 L246.8 215.6 L243.3 207.1 L241.5 202.2 L240.3 197.5 L239.3 191.2 L239.3 184.2 L240.2 177.8 L241.1 174.8 L243.3 171.0 L245.9 168.4 L248.6 167.0 L254.1 166.4 L258.2 167.2 L261.6 168.6 L264.1 169.9 L265.0 170.5 L268.1 172.7 L272.2 176.3 L277.0 181.3 L277.5 181.9 L280.7 185.7 L285.5 191.9 L290.0 198.0 L294.2 203.1 L299.2 208.6 L307.4 215.9 L313.0 219.1 L323.4 222.7 L329.7 224.0 L337.7 224.9 L353.2 224.3 L359.1 223.2 L367.2 220.5 L376.5 216.2 L379.9 214.2 L388.3 207.9 L394.1 202.1 L400.5 194.3 L407.0 184.4 L408.3 182.3 L413.4 173.8 L417.8 166.2 L422.8 158.0 L427.9 149.1 L431.7 142.6 L436.2 134.7 L439.9 127.6 L442.8 121.2 L444.3 116.9 L445.1 112.7 L445.3 108.3 L444.9 103.9 L443.3 99.3 L443.1 98.9 L438.8 92.2 L435.5 89.1 L430.6 85.7 L426.2 83.3 L422.2 81.4 L418.0 79.7 L413.5 78.0 L405.4 75.2 L396.1 72.6 L382.1 70.4 L367.6 70.0 L356.1 70.8 L342.4 72.9 L335.7 74.3 L319.8 78.4 L313.7 80.4 L302.3 84.5 L288.6 90.7 L274.6 98.5 L261.1 108.0 L259.0 109.6 L252.4 115.3 L238.1 130.7 L231.7 139.4 L223.2 153.4 L217.2 165.8 L212.2 177.8 L209.4 185.7 L206.8 193.7 L203.7 204.6 L201.7 213.0 L199.3 223.3 L197.3 232.7 L194.2 246.9 L190.0 268.1 L188.3 279.8 L187.2 288.6 L185.9 303.5 L185.3 313.2 L185.0 324.2 L185.0 342.4 L186.3 364.3 L187.8 378.5 L198.6 438.9 L203.1 458.0 L205.6 468.3 L210.1 486.4 L212.9 497.4 Z" fill="none" stroke="#f2f2f2" stroke-width="7" stroke-linejoin="round" stroke-linecap="round"/>
  <circle cx="214.1" cy="502.0" r="9" fill="#E10600"/>
  <text x="380" y="798" fill="#c9c7ca" font-family="ui-monospace, Menlo, monospace" font-size="26" letter-spacing="1.5" text-anchor="middle">INTERLAGOS · BRAZIL</text>
</svg>