<svg xmlns="http://www.w3.org/2000/svg" width="760" height="820" viewBox="0 0 760 820">
  <rect width="760" height="820" rx="20" fill="#1a181b"/>
  <path d="M512.3 648.8 L513.8 647.1 L518.4 642.1 L523.3 636.6 L528.6 630.7 L543.3 614.3 L547.9 609.2 L550.5 606.3 L552.9 603.7 L555.9 600.3 L557.6 598.3 L559.2 596.2 L561.4 591.7 L562.0 587.9 L561.7 584.8 L561.1 582.7 L560.9 582.2 L559.1 579.1 L558.1 577.9 L557.0 576.7 L555.2 575.3 L553.8 574.4 L551.8 573.5 L548.9 572.5 L546.2 572.1 L542.5 571.9 L539.2 572.2 L535.9 573.0 L530.6 575.2 L528.9 576.1 L523.5 579.8 L521.7 581.3 L518.7 583.8 L515.3 587.2 L510.7 591.8 L507.4 594.5 L503.2 596.8 L500.3 597.8 L496.5 598.4 L488.7 597.8 L484.0 596.4 L480.6 595.0 L475.9 592.3 L472.1 589.6 L467.9 585.4 L465.6 582.2 L463.3 578.4 L460.8 571.2 L459.6 565.4 L458.8 557.9 L458.4 552.7 L458.0 547.1 L457.5 540.3 L457.3 535.9 L457.0 531.5 L456.6 525.5 L456.4 520.0 L456.1 513.4 L455.9 507.7 L455.5 498.9 L455.3 492.1 L454.9 483.1 L454.7 478.3 L454.6 473.5 L454.4 468.1 L454.1 460.5 L453.9 455.6 L453.6 445.8 L453.3 438.2 L453.1 432.6 L452.9 427.1 L452.8 423.2 L452.3 410.2 L452.2 405.7 L452.0 400.7 L451.8 393.4 L451.4 383.8 L451.2 377.1 L450.9 369.2 L450.8 366.4 L450.6 359.7 L450.4 353.6 L450.1 345.9 L449.9 340.5 L449.7 333.8 L449.4 327.1 L449.3 322.2 L449.0 316.6 L449.0 315.8 L449.1 313.6 L449.8 308.2 L450.6 305.4 L451.7 302.2 L453.1 299.6 L455.5 296.9 L460.1 295.0 L461.2 294.8 L464.6 294.7 L467.0 294.7 L471.4 294.7 L475.5 294.7 L479.2 294.7 L479.9 294.7 L485.4 294.6 L490.6 294.6 L494.3 294.5 L501.1 294.5 L522.5 292.3 L526.3 290.9 L532.8 288.0 L537.9 284.9 L541.4 282.6 L548.1 277.0 L552.9 271.5 L556.2 266.9 L557.2 265.4 L561.2 257.6 L563.8 249.6 L564.4 246.3 L564.6 240.5 L564.2 238.1 L563.6 236.1 L563.2 235.3 L562.2 233.4 L560.8 231.5 L558.6 229.9 L556.2 228.9 L554.3 228.4 L551.6 227.3 L550.2 226.4 L548.0 224.1 L546.8 221.6 L546.2 218.4 L546.5 215.7 L547.8 212.0 L549.9 208.1 L551.3 205.6 L552.4 203.7 L554.3 200.2 L555.2 197.8 L556.2 194.2 L556.4 192.0 L556.1 188.7 L555.9 187.9 L555.1 185.8 L552.7 182.5 L550.0 181.2 L547.3 180.8 L544.7 180.7 L541.5 180.8 L539.8 180.9 L537.8 181.0 L530.5 181.1 L526.7 181.2 L520.1 181.3 L513.0 181.5 L507.3 181.6 L501.8 181.7 L494.5 181.9 L489.1 181.9 L483.5 181.9 L479.5 181.8 L474.1 181.8 L468.1 181.8 L465.8 181.8 L461.3 181.8 L453.7 181.7 L448.9 181.5 L443.6 180.9 L437.2 179.9 L433.3 179.1 L428.5 177.9 L420.3 175.1 L412.4 171.6 L405.0 167.0 L399.1 161.9 L396.2 158.9 L391.3 152.7 L387.0 146.1 L383.4 139.0 L379.7 130.7 L376.5 123.7 L375.1 120.8 L371.3 112.9 L368.8 108.1 L365.8 103.6 L362.9 99.7 L359.3 95.7 L354.6 91.2 L346.6 84.9 L340.3 81.2 L334.6 78.5 L330.1 76.8 L326.1 75.5 L320.2 74.0 L312.9 72.5 L310.2 72.0 L306.4 71.3 L302.0 70.4 L299.8 70.2 L298.0 70.0 L296.8 70.0 L294.9 70.4 L292.9 71.4 L291.5 72.6 L290.4 73.7 L289.9 74.4 L288.2 77.8 L287.6 80.1 L287.2 82.0 L286.0 86.7 L284.9 89.7 L283.3 93.3 L282.2 95.5 L279.6 100.8 L276.2 108.2 L273.8 113.4 L271.0 118.8 L268.5 123.4 L265.0 129.6 L261.9 134.9 L258.9 140.3 L255.5 146.3 L252.7 151.6 L251.5 153.7 L249.6 157.5 L246.4 163.5 L244.0 167.9 L241.2 173.1 L238.8 177.6 L235.1 184.9 L231.0 193.8 L227.7 201.5 L224.9 208.4 L221.7 217.0 L220.4 221.1 L219.6 223.7 L216.6 234.2 L213.1 246.4 L211.9 250.7 L210.3 256.6 L208.2 264.8 L206.6 271.4 L205.6 276.3 L204.7 280.2 L203.4 286.9 L202.5 292.0 L200.6 304.4 L199.4 313.5 L198.5 322.1 L197.7 331.8 L197.3 337.1 L196.9 345.8 L196.7 356.2 L196.6 364.4 L196.6 369.1 L196.6 376.2 L196.6 381.5 L196.7 388.5 L196.8 396.1 L196.9 407.9 L196.9 412.0 L197.0 421.4 L197.0 423.2 L197.0 429.1 L197.1 441.5 L197.2 447.4 L197.1 453.9 L197.1 465.1 L197.0 471.1 L197.0 478.2 L196.9 486.5 L196.9 495.2 L196.8 505.3 L196.8 512.4 L196.8 514.2 L196.7 524.3 L196.7 530.9 L196.6 535.7 L196.6 540.5 L196.6 553.0 L196.5 556.5 L196.4 564.3 L196.3 573.8 L196.2 583.4 L196.1 588.2 L196.0 601.3 L195.9 612.9 L195.7 625.6 L195.6 632.5 L195.6 637.0 L195.5 646.9 L195.4 653.0 L195.8 660.0 L196.3 662.8 L197.0 665.4 L197.3 666.1 L198.9 669.5 L204.0 674.4 L205.7 675.1 L209.0 675.7 L210.9 675.9 L213.3 676.5 L214.9 677.1 L218.3 679.3 L220.3 680.8 L225.0 684.6 L227.2 686.2 L231.7 688.4 L235.3 689.2 L238.7 689.6 L242.3 689.7 L246.5 689.8 L249.9 689.9 L253.1 690.0 L261.1 689.9 L265.3 689.8 L270.1 689.7 L275.8 689.5 L283.0 689.3 L288.6 689.2 L297.5 689.0 L302.3 688.8 L309.6 688.6 L314.6 688.5 L321.6 688.3 L328.2 688.1 L334.9 687.9 L339.0 687.7 L343.7 687.7 L351.1 687.6 L359.0 687.6 L368.1 687.7 L375.2 687.9 L379.0 687.9 L386.1 687.9 L394.4 687.9 L398.8 687.9 L411.0 687.8 L417.2 687.6 L424.5 687.5 L457.4 686.0 L465.3 684.7 L472.9 682.4 L477.6 680.4 L481.6 678.2 L491.2 671.8 L494.2 669.3 L498.2 665.3 L502.6 660.4 L509.1 652.7 Z" fill="none" stroke="#f2f2f2" stroke-width="7" stroke-linejoin="round" stroke-linecap="round"/>
  <circle cx="512.3" cy="648.8" r="9" fill="#E10600"/>
  <text x="380" y="798" fill="#c9c7ca" font-family="ui-monospace, Menlo, monospace" font-size="26" letter-spacing="1.5" text-anchor="middle">LAS VEGAS · USA</text>
</svg>