<svg xmlns="http://www.w3.org/2000/svg" width="760" height="820" viewBox="0 0 760 820">
  <rect width="760" height="820" rx="20" fill="#1a181b"/>
  <path d="M253.4 528.5 L250.8 523.8 L247.5 517.8 L244.6 512.4 L241.9 507.6 L234.9 494.9 L228.5 483.3 L221.7 471.0 L217.6 463.6 L214.3 457.7 L206.4 443.4 L203.5 438.4 L199.3 430.9 L194.3 422.2 L191.5 417.2 L185.1 405.9 L177.6 392.7 L172.9 384.6 L168.0 375.7 L165.1 370.7 L162.0 365.3 L158.2 358.6 L155.3 353.5 L151.7 347.2 L148.5 341.6 L144.0 334.1 L137.3 322.9 L133.0 315.5 L128.8 308.0 L126.6 303.6 L121.2 292.2 L118.6 285.9 L116.3 278.4 L115.8 275.7 L115.5 271.4 L115.6 268.0 L116.9 261.4 L117.5 260.0 L120.8 254.7 L123.7 251.7 L128.4 248.2 L132.2 246.5 L135.0 245.5 L140.1 244.7 L147.2 245.1 L151.8 246.3 L160.1 250.1 L165.1 253.1 L174.8 259.6 L178.6 262.1 L184.2 265.8 L190.4 269.8 L199.4 275.8 L205.9 279.9 L212.1 283.5 L217.7 286.1 L225.4 287.7 L231.0 287.2 L238.9 284.3 L245.0 279.6 L246.4 278.1 L249.3 274.1 L250.7 271.1 L252.0 267.0 L252.8 261.2 L253.0 257.5 L252.9 250.7 L252.7 243.3 L252.6 237.3 L252.4 230.5 L252.2 225.8 L252.0 215.9 L252.0 209.7 L261.9 178.9 L265.2 174.5 L271.9 166.3 L277.6 159.6 L279.7 157.3 L286.2 150.3 L292.7 143.1 L296.6 138.8 L300.5 134.5 L306.2 128.2 L311.4 122.4 L315.0 118.6 L320.2 112.7 L326.0 106.3 L328.6 103.4 L333.5 98.1 L339.6 91.3 L345.6 84.8 L350.9 79.2 L357.3 73.6 L361.7 71.5 L372.5 70.0 L377.3 70.5 L388.2 74.5 L392.5 77.3 L395.7 79.8 L400.4 83.8 L403.5 86.6 L409.7 93.1 L410.8 94.3 L416.2 101.9 L418.3 106.6 L419.8 111.4 L420.7 118.3 L418.4 130.5 L415.2 135.3 L411.9 138.9 L407.1 143.4 L403.6 146.8 L396.5 153.6 L392.9 157.1 L388.4 161.4 L382.7 167.1 L378.4 171.7 L375.1 175.4 L369.7 181.5 L366.4 185.2 L360.9 192.1 L357.7 197.0 L356.3 199.4 L355.3 201.5 L353.5 206.9 L353.3 210.0 L354.4 214.3 L356.3 216.8 L359.8 219.1 L363.7 220.2 L364.0 220.2 L367.0 220.3 L372.7 219.5 L375.6 218.7 L377.8 218.0 L383.0 216.0 L388.8 213.8 L392.3 212.4 L398.0 210.2 L406.5 206.7 L411.4 204.7 L419.4 201.1 L423.5 199.2 L428.7 196.7 L440.9 191.0 L444.9 189.3 L454.6 185.0 L462.9 181.4 L470.8 178.3 L478.9 175.5 L480.3 175.1 L484.2 174.4 L487.9 174.2 L496.4 175.6 L500.5 177.3 L505.9 180.9 L509.1 184.1 L511.9 187.9 L513.0 189.9 L514.3 192.6 L515.6 198.6 L515.7 203.7 L515.1 207.0 L513.7 211.0 L511.6 214.9 L507.0 220.6 L501.7 225.1 L499.3 227.4 L493.2 233.7 L488.7 239.2 L483.9 246.0 L480.7 251.0 L477.7 256.2 L472.7 266.2 L468.9 275.9 L468.5 277.0 L466.4 283.8 L465.1 289.0 L462.0 298.0 L459.4 302.7 L455.9 307.5 L452.6 310.8 L442.7 316.3 L437.4 318.1 L429.2 320.3 L424.5 321.4 L412.2 323.8 L406.8 324.7 L400.5 325.8 L393.9 327.2 L387.6 328.7 L383.6 330.4 L383.3 330.6 L378.6 334.3 L376.7 336.6 L373.2 343.7 L372.2 348.3 L372.1 351.1 L372.6 354.8 L374.1 359.1 L375.8 362.0 L380.6 368.1 L385.2 373.3 L389.5 377.5 L392.9 380.5 L397.8 384.2 L401.0 386.5 L408.6 391.5 L413.6 394.4 L417.9 396.6 L430.6 402.3 L437.1 404.7 L441.6 406.1 L452.0 408.7 L462.7 410.6 L467.6 411.0 L472.0 411.3 L484.1 411.4 L493.7 411.0 L497.0 410.8 L503.4 410.2 L514.0 409.1 L519.9 408.4 L529.2 407.3 L535.2 406.6 L541.7 405.9 L549.1 405.0 L559.0 403.7 L567.9 402.2 L574.0 401.4 L582.9 400.9 L591.0 401.7 L601.4 404.8 L609.8 409.5 L618.7 417.2 L626.7 427.7 L630.6 434.2 L633.9 440.3 L641.3 456.1 L643.9 464.6 L644.5 469.2 L644.5 475.1 L643.4 481.6 L640.6 489.2 L638.4 493.5 L635.1 499.4 L630.0 507.3 L622.6 517.8 L618.4 523.9 L614.5 529.5 L610.6 534.9 L600.8 543.2 L596.0 545.1 L585.0 546.5 L577.3 545.7 L568.0 544.3 L561.3 542.9 L555.8 541.6 L548.4 539.9 L541.0 538.1 L536.6 537.1 L526.5 534.9 L521.4 533.9 L512.9 532.1 L505.8 530.7 L497.9 529.3 L485.5 527.5 L472.9 528.1 L466.2 530.6 L461.1 533.9 L455.5 539.1 L451.8 544.0 L448.9 548.6 L443.7 557.9 L438.1 569.6 L435.5 575.2 L433.2 580.3 L430.0 587.2 L424.4 599.4 L420.0 608.9 L419.1 610.6 L415.3 618.3 L408.4 631.9 L405.9 636.6 L400.5 647.2 L395.2 657.1 L391.1 664.6 L390.1 666.3 L387.1 671.6 L380.4 681.1 L376.7 684.5 L372.4 687.3 L370.6 688.2 L362.7 690.0 L357.6 689.9 L353.1 689.2 L350.2 688.3 L345.5 686.0 L340.5 682.3 L337.7 679.4 L335.3 676.4 L331.4 670.7 L328.4 665.2 L326.5 661.7 L321.3 651.8 L317.3 644.2 L312.3 635.0 L309.9 630.6 L306.2 624.0 L302.5 617.4 L297.6 608.5 L293.4 601.0 L286.5 588.5 L282.2 580.7 L278.8 574.6 L272.8 563.7 L269.4 557.4 L266.5 552.1 L261.3 542.6 Z" fill="none" stroke="#f2f2f2" stroke-width="7" stroke-linejoin="round" stroke-linecap="round"/>
  <circle cx="253.4" cy="528.5" r="9" fill="#E10600"/>
  <text x="380" y="798" fill="#c9c7ca" font-family="ui-monospace, Menlo, monospace" font-size="26" letter-spacing="1.5" text-anchor="middle">LUSAIL · QATAR</text>
</svg>