<svg xmlns="http://www.w3.org/2000/svg" width="760" height="820" viewBox="0 0 760 820">
  <rect width="760" height="820" rx="20" fill="#1a181b"/>
  <path d="M340.6 420.4 L345.2 419.9 L349.0 419.4 L356.8 418.6 L363.8 417.8 L372.4 416.8 L377.6 416.2 L383.3 415.6 L393.8 414.4 L401.9 413.5 L407.9 412.8 L412.8 412.2 L418.2 411.6 L424.2 410.9 L434.2 409.8 L439.1 409.2 L445.6 408.6 L451.2 408.2 L456.6 407.5 L458.6 407.1 L464.3 405.3 L467.3 403.6 L471.6 398.7 L472.4 396.8 L473.9 389.2 L474.0 386.9 L474.0 383.0 L473.5 375.6 L473.0 371.7 L472.5 368.3 L471.9 365.3 L471.0 360.1 L470.1 356.0 L469.3 352.3 L467.7 346.3 L466.0 339.7 L464.1 333.4 L462.4 328.0 L458.7 319.0 L457.2 316.5 L451.7 310.4 L446.2 306.9 L440.9 304.7 L429.4 301.0 L425.4 299.6 L420.4 297.9 L413.9 295.5 L405.7 290.0 L397.5 279.8 L395.4 275.4 L392.4 262.2 L392.8 252.1 L393.9 245.0 L394.5 241.1 L395.3 236.2 L396.5 229.1 L398.1 219.8 L398.6 217.0 L399.7 210.9 L400.8 203.6 L401.8 195.1 L402.2 189.9 L402.4 180.7 L402.4 176.1 L402.4 169.7 L402.2 163.5 L402.0 156.8 L401.6 147.4 L401.0 138.6 L400.4 130.4 L399.9 124.0 L399.3 116.5 L398.7 109.5 L398.2 104.3 L397.0 94.3 L395.5 86.9 L393.1 80.2 L391.2 76.8 L389.6 74.8 L387.2 72.6 L385.3 71.4 L382.7 70.3 L380.3 70.0 L378.8 70.1 L376.9 70.7 L375.2 71.5 L373.3 72.7 L370.1 75.6 L368.8 77.2 L367.8 78.7 L365.9 82.2 L364.9 84.5 L363.7 87.6 L362.6 90.8 L361.0 96.1 L360.1 98.8 L358.4 104.3 L356.7 109.6 L355.2 114.3 L353.3 120.4 L351.7 125.4 L350.6 128.9 L348.7 135.1 L346.7 141.5 L343.4 151.3 L341.5 156.6 L339.5 162.3 L338.0 166.8 L334.6 176.3 L333.2 180.4 L329.0 192.3 L327.0 198.1 L325.5 202.3 L323.1 209.2 L321.4 214.1 L318.9 221.2 L315.8 229.9 L312.2 240.4 L311.4 242.7 L309.1 249.4 L307.3 254.4 L303.6 265.2 L299.2 277.7 L297.0 284.0 L294.0 292.6 L292.7 296.1 L289.7 304.8 L287.1 312.3 L284.0 321.0 L281.5 328.1 L278.3 337.4 L274.4 348.6 L270.6 359.2 L269.8 361.5 L265.1 374.4 L263.4 379.0 L260.9 386.0 L259.0 391.2 L256.9 397.1 L254.1 404.9 L252.5 409.2 L248.0 421.1 L243.3 433.7 L239.3 445.8 L238.5 448.3 L236.6 454.9 L236.2 456.8 L235.4 462.0 L235.3 463.9 L235.3 466.2 L235.8 470.2 L236.3 471.8 L237.5 474.1 L238.5 475.0 L239.0 475.2 L240.6 475.8 L241.9 475.8 L243.7 475.6 L246.5 475.1 L249.8 474.5 L252.8 474.3 L255.0 474.7 L257.6 475.9 L259.5 477.8 L260.0 478.6 L260.8 480.1 L262.6 484.7 L263.9 489.2 L264.4 491.5 L265.1 494.2 L266.6 500.1 L267.9 505.4 L269.3 510.2 L272.6 519.5 L275.9 526.8 L278.4 531.5 L280.2 534.6 L282.7 538.5 L285.3 542.4 L288.4 546.7 L291.8 550.9 L294.0 553.6 L297.4 557.3 L300.6 560.6 L308.2 567.7 L312.2 571.2 L319.6 577.4 L325.4 582.4 L331.4 587.4 L335.7 591.0 L343.4 597.5 L349.6 602.7 L354.4 606.8 L359.7 611.3 L363.7 614.7 L369.1 619.2 L374.9 624.2 L382.4 630.4 L387.2 634.2 L396.2 641.0 L400.7 644.2 L406.7 648.2 L410.7 650.9 L420.0 656.5 L424.7 659.2 L428.4 661.2 L433.8 663.9 L439.3 666.4 L447.0 669.8 L452.7 672.3 L461.0 675.9 L467.8 678.6 L475.6 681.6 L478.7 682.9 L484.2 685.0 L491.3 687.8 L497.2 689.6 L500.8 690.0 L508.9 688.6 L513.2 686.6 L516.6 684.2 L519.0 681.9 L520.1 680.7 L522.0 677.9 L524.4 671.3 L524.7 667.5 L524.4 663.6 L523.7 660.0 L522.6 656.5 L520.5 651.7 L518.5 648.4 L517.4 646.8 L512.5 641.1 L507.0 637.1 L500.0 634.8 L487.2 633.3 L480.9 632.3 L474.8 631.2 L468.6 630.4 L458.7 629.5 L450.7 628.9 L446.6 628.6 L439.3 628.0 L434.5 627.6 L428.1 626.9 L422.9 626.0 L419.3 625.0 L413.3 622.6 L407.4 619.5 L402.5 616.6 L399.5 614.7 L395.0 611.6 L386.9 605.0 L379.8 596.4 L376.2 588.5 L374.7 583.3 L373.6 578.6 L372.6 573.3 L372.1 569.9 L371.9 568.2 L371.8 563.5 L371.9 560.2 L372.3 556.4 L372.9 554.1 L373.9 551.7 L374.8 550.4 L378.3 548.0 L381.0 547.3 L383.5 547.0 L385.3 547.0 L387.4 547.1 L391.8 547.5 L392.6 547.6 L406.4 543.5 L409.1 541.2 L411.0 539.3 L413.3 535.7 L414.7 530.3 L415.1 525.5 L415.3 522.8 L415.4 520.6 L415.1 515.9 L414.4 512.1 L413.2 509.0 L410.7 505.2 L406.0 501.0 L399.4 497.7 L393.8 496.7 L389.8 496.7 L383.4 497.3 L376.0 498.5 L372.5 499.0 L369.3 499.4 L364.3 500.1 L358.6 500.8 L357.3 501.0 L351.8 501.8 L348.2 502.4 L337.8 504.2 L332.9 505.0 L328.5 505.6 L323.2 505.9 L315.5 504.9 L310.2 503.1 L307.9 502.1 L300.1 496.9 L295.6 491.7 L293.0 487.5 L290.5 483.4 L287.6 478.5 L284.7 473.7 L280.6 466.5 L279.3 463.7 L277.0 457.8 L275.7 453.6 L274.5 446.7 L274.2 443.2 L274.2 439.9 L274.4 436.9 L274.7 435.2 L275.1 433.1 L276.4 430.0 L278.3 427.9 L281.4 426.1 L283.4 425.5 L286.8 425.0 L291.3 424.7 L294.7 424.4 L298.9 423.7 L301.7 423.4 L310.0 422.9 L313.9 422.7 L317.8 422.5 L324.8 422.2 L329.6 421.8 L335.5 421.0 L336.9 420.9 Z" fill="none" stroke="#f2f2f2" stroke-width="7" stroke-linejoin="round" stroke-linecap="round"/>
  <circle cx="340.6" cy="420.4" r="9" fill="#E10600"/>
  <text x="380" y="798" fill="#c9c7ca" font-family="ui-monospace, Menlo, monospace" font-size="26" letter-spacing="1.5" text-anchor="middle">YAS MARINA · UAE</text>
</svg>