<svg xmlns="http://www.w3.org/2000/svg" width="760" height="820" viewBox="0 0 760 820">
  <rect width="760" height="820" rx="20" fill="#1a181b"></rect>
  <path d="M637.5 274.4 L644.7 271.4 L646.6 270.6 L653.8 267.7 L658.0 265.8 L665.1 262.7 L670.8 260.5 L673.7 259.4 L676.9 258.3 L678.9 257.6 L682.2 256.0 L683.7 255.1 L686.8 252.5 L687.4 251.8 L689.0 249.1 L689.5 247.9 L689.9 246.5 L690.0 243.4 L689.7 241.5 L689.0 239.1 L688.2 236.8 L687.4 235.0 L686.3 232.6 L685.3 230.6 L683.2 225.7 L681.1 220.6 L679.6 217.0 L678.4 214.2 L676.5 210.0 L674.2 204.9 L672.8 201.8 L671.2 198.2 L669.1 193.6 L667.2 189.2 L665.4 185.1 L663.8 181.5 L661.8 177.0 L659.5 171.7 L658.8 170.2 L657.7 167.8 L656.4 164.7 L654.5 160.9 L653.5 159.4 L652.4 158.4 L650.4 157.4 L649.1 157.2 L647.6 157.2 L644.1 158.0 L641.3 158.9 L639.9 159.4 L638.3 160.0 L633.4 162.0 L631.3 162.8 L628.0 164.1 L625.3 165.1 L622.1 166.2 L616.3 168.3 L613.4 169.4 L609.8 170.8 L601.4 173.9 L594.8 176.4 L591.4 177.6 L587.2 179.2 L582.1 181.1 L574.0 184.2 L569.1 186.0 L565.3 187.4 L559.4 189.7 L556.0 191.0 L552.6 192.4 L548.3 194.2 L542.3 196.8 L537.0 199.1 L532.2 201.2 L526.9 203.5 L523.3 205.0 L513.9 209.1 L505.7 212.6 L494.7 217.4 L491.4 218.8 L479.4 224.0 L477.1 225.0 L472.5 227.1 L467.9 229.1 L458.2 233.4 L453.1 235.7 L443.6 239.9 L437.1 242.8 L432.1 245.1 L423.1 249.0 L418.6 251.1 L415.4 252.7 L413.9 253.6 L412.5 254.8 L410.6 257.3 L410.2 259.7 L410.4 261.0 L411.3 263.6 L412.0 265.2 L413.5 268.2 L414.4 269.9 L416.3 274.2 L417.3 276.7 L418.6 280.7 L419.5 283.5 L420.2 285.6 L422.7 292.0 L423.7 294.4 L426.4 300.0 L427.6 302.7 L430.5 309.3 L431.6 312.5 L432.0 314.0 L432.4 317.0 L432.2 319.1 L431.2 321.4 L428.6 323.8 L426.6 324.9 L424.3 326.0 L422.6 326.7 L419.3 328.0 L417.7 328.5 L414.8 329.6 L412.7 330.4 L408.5 332.2 L404.9 333.8 L401.7 335.2 L399.3 336.3 L391.5 339.5 L386.2 342.0 L384.2 343.1 L378.5 346.4 L372.1 350.3 L364.0 354.9 L361.3 356.4 L356.4 359.1 L352.0 362.0 L348.3 365.3 L347.2 366.8 L346.0 369.0 L345.5 370.3 L345.4 372.9 L346.1 375.7 L347.0 377.4 L347.6 378.8 L348.5 380.6 L349.3 382.9 L349.5 384.3 L348.7 387.1 L346.6 389.5 L344.6 391.0 L342.1 392.6 L338.6 394.8 L335.8 396.6 L332.2 399.2 L329.5 401.3 L326.4 403.8 L325.2 404.8 L321.8 407.4 L316.9 411.0 L312.9 414.1 L310.8 415.7 L304.4 420.5 L299.1 424.6 L296.2 426.8 L293.9 428.5 L289.3 432.0 L282.6 437.1 L279.3 439.6 L275.9 442.1 L270.9 446.0 L268.6 447.8 L266.6 449.4 L264.7 451.0 L263.1 452.2 L261.9 453.1 L260.6 453.9 L258.4 455.1 L257.9 455.3 L256.4 455.6 L255.0 455.5 L254.0 455.1 L253.1 454.4 L251.5 452.3 L250.1 449.6 L249.5 447.9 L249.1 446.8 L247.7 442.6 L247.0 440.3 L246.4 438.5 L245.1 434.0 L244.3 431.3 L243.7 429.0 L242.9 426.7 L241.4 421.7 L239.9 416.7 L238.2 411.0 L237.7 409.2 L236.7 405.9 L236.1 404.0 L235.5 402.1 L234.0 399.2 L231.5 397.8 L229.3 396.9 L225.6 395.5 L222.2 394.5 L219.1 394.0 L215.6 393.7 L212.8 393.5 L211.4 393.4 L209.7 393.1 L206.3 391.9 L205.7 391.7 L203.9 390.4 L202.7 389.0 L201.8 386.9 L201.5 385.0 L201.5 383.4 L201.4 380.6 L201.0 379.0 L199.9 377.4 L198.1 376.4 L196.5 376.0 L194.6 375.9 L192.0 375.9 L189.2 376.1 L186.9 376.4 L184.7 376.8 L180.1 378.0 L177.5 379.0 L174.2 380.3 L171.1 381.7 L168.4 383.0 L165.7 384.2 L162.5 385.5 L159.2 386.9 L152.3 389.9 L148.2 391.9 L141.2 395.6 L138.3 397.1 L134.3 399.1 L128.2 402.1 L123.6 404.5 L123.3 404.7 L116.8 408.4 L108.1 413.4 L102.2 416.8 L99.4 418.2 L95.8 420.3 L89.4 426.3 L85.3 434.4 L82.7 442.2 L81.3 446.8 L80.3 450.5 L79.1 454.2 L77.5 459.2 L74.5 468.6 L72.4 475.7 L71.4 480.0 L70.2 489.4 L70.0 494.0 L70.2 502.1 L70.4 504.1 L70.8 509.2 L71.5 519.6 L72.0 525.0 L72.3 529.5 L72.3 533.5 L72.2 536.1 L71.8 540.8 L71.5 543.8 L71.3 546.6 L71.2 547.9 L71.1 551.7 L71.2 552.7 L71.6 554.5 L72.0 555.6 L72.8 556.7 L74.1 557.7 L80.8 561.0 L84.3 562.9 L88.9 565.3 L92.8 567.3 L95.2 568.4 L99.7 570.7 L105.1 573.3 L108.8 575.3 L113.0 577.5 L115.0 578.6 L120.0 581.5 L123.1 583.3 L127.6 586.0 L131.6 588.2 L133.8 589.3 L142.3 593.7 L146.6 596.3 L151.0 598.8 L154.9 600.7 L158.3 601.9 L160.4 602.5 L162.4 602.8 L164.3 602.8 L166.0 602.5 L169.3 600.9 L171.2 598.9 L173.6 595.3 L175.7 591.2 L177.8 587.0 L179.1 584.2 L181.6 579.3 L182.7 577.0 L184.9 572.5 L187.5 567.2 L189.2 564.0 L191.2 560.5 L193.8 556.3 L195.8 553.3 L198.7 549.4 L202.3 545.0 L205.2 542.0 L212.6 535.2 L216.6 531.7 L219.3 529.4 L226.7 522.7 L230.2 519.0 L233.4 515.5 L238.2 510.8 L242.1 507.2 L245.1 504.2 L247.6 500.9 L249.7 497.1 L252.0 491.7 L254.2 484.2 L255.8 477.5 L258.2 467.0 L259.4 463.4 L262.6 457.6 L265.1 454.5 L279.3 443.1 L285.0 439.0 L288.2 436.5 L291.8 433.7 L296.2 430.3 L303.5 424.8 L309.6 420.1 L314.1 416.6 L319.9 412.3 L328.1 406.0 L335.9 400.0 L342.5 395.8 L349.4 392.1 L356.7 389.0 L364.1 386.1 L370.4 383.6 L375.3 381.6 L384.2 378.0 L389.1 376.0 L393.0 374.4 L401.0 371.1 L408.8 367.9 L412.2 366.5 L420.1 363.2 L429.0 359.5 L435.4 356.8 L441.3 354.3 L450.2 350.5 L455.7 348.2 L457.2 347.6 L463.1 345.1 L467.1 343.4 L473.0 340.9 L481.5 337.3 L483.5 336.5 L494.9 331.6 L500.4 329.3 L506.8 326.6 L512.8 324.0 L516.8 322.4 L525.3 319.0 L530.9 316.9 L536.5 314.9 L543.0 312.5 L548.1 310.6 L554.6 308.1 L559.7 306.2 L564.7 304.3 L573.3 301.2 L577.3 299.6 L581.8 297.8 L587.3 295.5 L595.2 292.1 L603.5 288.6 L612.8 284.8 Z" fill="none" stroke="#f2f2f2" stroke-width="7" stroke-linejoin="round" stroke-linecap="round"></path>
  <circle cx="637.5" cy="274.4" r="9" fill="#E10600"></circle>
  <text x="380" y="798" fill="#c9c7ca" font-family="ui-monospace, Menlo, monospace" font-size="26" letter-spacing="1.5" text-anchor="middle">BAKU · AZERBAIJAN</text>
</svg>