<svg xmlns="http://www.w3.org/2000/svg" width="760" height="820" viewBox="0 0 760 820">
  <rect width="760" height="820" rx="20" fill="#1a181b"></rect>
  <path d="M333.2 611.0 L323.8 603.3 L315.6 596.5 L306.0 588.6 L300.0 583.6 L287.8 573.6 L278.6 566.0 L272.3 561.0 L260.5 551.2 L255.5 547.1 L244.2 537.8 L235.7 530.8 L229.5 525.7 L222.5 520.0 L209.7 509.7 L203.9 505.1 L192.9 496.5 L187.2 492.0 L178.9 485.5 L168.0 477.0 L160.3 471.0 L157.1 468.5 L144.9 459.0 L137.8 453.4 L128.5 445.7 L124.0 441.7 L117.4 435.3 L112.1 429.0 L107.9 421.3 L107.3 419.4 L106.6 416.5 L106.4 413.0 L107.2 409.0 L108.3 406.9 L110.6 404.1 L113.7 401.9 L116.4 400.7 L124.0 399.2 L129.5 398.9 L132.3 399.0 L135.8 399.2 L143.2 400.0 L147.5 400.7 L152.1 401.6 L161.6 403.7 L167.9 405.5 L172.3 406.9 L182.8 410.8 L195.8 417.0 L199.7 419.2 L209.2 425.3 L219.8 433.0 L224.2 436.5 L229.7 441.0 L237.5 447.6 L241.9 451.4 L248.7 457.3 L254.3 462.3 L265.1 471.7 L271.5 477.2 L279.7 484.1 L284.4 487.8 L288.1 490.6 L294.6 494.9 L301.0 498.3 L306.8 500.5 L308.6 501.0 L312.3 501.6 L316.9 501.6 L324.1 499.8 L328.1 497.6 L330.6 495.4 L333.7 491.3 L335.7 487.2 L336.8 483.4 L337.2 481.3 L337.1 473.7 L335.0 465.2 L331.8 457.5 L330.3 454.7 L325.0 445.5 L322.6 441.4 L319.3 435.1 L314.9 423.9 L313.6 418.4 L312.3 409.7 L312.6 399.4 L313.4 394.3 L314.8 389.2 L318.3 381.0 L321.2 375.5 L326.3 366.3 L329.5 360.8 L334.0 353.5 L335.1 351.6 L339.5 344.1 L347.0 330.4 L352.1 321.1 L354.3 317.1 L358.0 310.3 L364.7 298.1 L371.5 285.7 L377.7 274.6 L381.2 268.3 L387.4 257.2 L394.6 245.5 L402.0 234.9 L411.8 222.0 L412.7 220.8 L417.4 214.5 L423.1 205.3 L425.4 200.3 L427.2 195.2 L428.1 169.7 L424.8 158.6 L423.0 153.4 L419.1 143.3 L413.9 128.9 L412.0 122.8 L409.9 113.2 L409.1 106.7 L409.4 99.0 L410.3 93.8 L410.8 91.8 L413.5 85.6 L417.7 79.6 L421.9 75.7 L423.7 74.5 L427.9 72.4 L435.1 70.4 L439.6 70.0 L442.2 70.0 L447.9 70.7 L453.5 72.2 L458.6 74.2 L463.2 76.3 L469.6 80.1 L475.9 84.8 L480.8 88.8 L486.2 93.6 L490.6 97.9 L497.2 104.8 L501.1 109.0 L508.2 116.9 L515.9 125.4 L522.5 132.7 L529.2 140.1 L537.0 149.5 L539.7 153.7 L541.3 157.0 L542.8 162.0 L542.9 167.6 L541.8 171.7 L539.8 175.9 L538.1 179.1 L535.9 184.6 L535.3 188.0 L535.0 193.9 L535.2 197.1 L535.4 200.6 L536.0 203.9 L537.1 208.3 L540.0 217.9 L542.3 225.7 L543.6 230.9 L545.4 238.1 L547.1 244.9 L549.0 250.6 L552.4 257.3 L555.9 262.2 L560.1 266.4 L568.9 271.7 L573.4 273.1 L577.3 273.8 L586.8 274.6 L595.5 275.4 L600.6 276.3 L607.4 278.6 L612.1 281.4 L619.4 287.8 L623.3 293.3 L626.3 300.1 L627.6 307.7 L627.6 313.8 L627.0 319.1 L624.7 329.8 L622.0 339.5 L619.3 349.0 L618.2 353.7 L616.8 362.9 L617.2 387.3 L618.9 395.2 L620.4 400.5 L624.0 409.6 L629.0 418.1 L634.6 425.7 L640.0 432.8 L644.9 440.1 L649.6 449.7 L652.7 460.0 L653.3 464.5 L653.6 469.4 L652.8 478.9 L650.8 486.1 L647.8 492.7 L643.9 498.8 L639.7 503.9 L634.2 509.9 L629.0 515.2 L620.9 523.3 L613.6 530.8 L607.8 536.7 L603.2 541.4 L593.4 551.5 L589.2 555.8 L580.2 565.2 L579.2 566.3 L573.4 572.4 L564.4 582.0 L554.3 593.0 L550.9 596.8 L545.0 603.6 L541.5 607.7 L537.2 613.0 L533.4 617.3 L529.4 621.2 L522.2 626.4 L518.6 627.9 L515.6 628.6 L513.5 628.8 L509.5 628.3 L503.4 625.6 L500.3 623.4 L496.5 620.0 L493.1 616.4 L488.8 611.3 L485.1 606.6 L481.4 602.1 L477.5 597.3 L472.8 591.9 L469.4 588.1 L465.2 583.3 L458.3 575.9 L452.4 569.9 L447.5 565.5 L443.9 562.8 L435.0 558.2 L427.5 556.8 L425.9 556.8 L420.7 557.6 L415.8 559.4 L411.9 562.3 L409.1 565.6 L407.3 569.1 L406.1 574.4 L406.0 577.2 L406.5 580.9 L409.3 587.7 L411.7 591.2 L413.0 592.8 L415.0 594.9 L421.7 600.8 L427.3 604.9 L428.8 606.0 L436.2 611.4 L443.1 616.3 L448.8 620.5 L451.0 622.3 L470.8 645.3 L472.1 649.0 L473.0 653.8 L473.2 661.1 L472.9 663.3 L471.4 669.7 L470.1 672.7 L468.2 675.9 L465.5 679.3 L460.1 684.0 L455.6 686.6 L450.1 688.6 L446.7 689.3 L439.7 690.0 L434.5 689.6 L430.5 688.8 L425.4 687.1 L419.0 683.9 L410.8 678.3 L403.3 672.1 L399.5 668.9 L395.8 665.6 L389.0 659.5 L381.7 652.9 L377.7 649.2 L364.8 637.5 L357.3 630.9 L352.4 626.7 L342.8 618.7 Z" fill="none" stroke="#f2f2f2" stroke-width="7" stroke-linejoin="round" stroke-linecap="round"></path>
  <circle cx="333.2" cy="611.0" r="9" fill="#E10600"></circle>
  <text x="380" y="798" fill="#c9c7ca" font-family="ui-monospace, Menlo, monospace" font-size="26" letter-spacing="1.5" text-anchor="middle">HUNGARORING · HUNGARY</text>
</svg>