<svg xmlns="http://www.w3.org/2000/svg" width="760" height="820" viewBox="0 0 760 820">
  <rect width="760" height="820" rx="20" fill="#1a181b"></rect>
  <path d="M138.1 468.8 L138.2 456.2 L138.5 450.2 L139.2 440.3 L140.1 429.5 L141.2 420.9 L143.8 406.3 L144.2 404.1 L146.7 393.4 L148.1 387.5 L149.5 382.7 L151.4 376.6 L152.5 373.1 L154.6 368.1 L156.2 365.2 L158.6 362.3 L161.8 360.1 L164.5 359.0 L169.3 357.5 L177.9 356.2 L184.6 355.5 L186.4 355.3 L195.7 354.6 L201.1 354.0 L209.2 353.1 L209.8 353.0 L241.8 346.3 L255.3 342.9 L268.6 339.7 L279.9 336.7 L288.8 334.4 L295.5 333.0 L304.1 331.5 L312.9 330.6 L321.9 329.8 L337.5 327.1 L349.4 322.4 L358.9 317.6 L373.4 310.7 L383.9 306.5 L395.8 303.0 L404.2 301.3 L418.7 299.2 L426.2 298.3 L435.2 297.2 L450.5 294.0 L461.8 289.4 L465.6 287.3 L473.5 281.5 L481.9 271.6 L484.7 266.1 L486.6 260.2 L487.6 254.2 L487.7 250.4 L487.4 243.5 L487.0 240.6 L484.7 232.0 L480.2 222.5 L476.2 216.0 L472.0 210.5 L467.7 205.3 L464.7 201.6 L460.0 194.9 L457.2 188.7 L456.9 187.3 L457.0 177.4 L458.9 171.4 L461.3 166.2 L465.0 159.8 L468.0 155.6 L471.9 150.6 L479.5 142.0 L488.2 132.4 L494.7 123.6 L497.7 119.3 L506.1 107.0 L509.8 101.8 L513.6 96.9 L520.5 88.3 L527.2 80.7 L528.6 79.0 L531.2 76.5 L533.4 74.6 L545.0 72.8 L547.7 74.2 L549.9 76.1 L551.8 78.1 L553.1 80.5 L554.5 84.3 L555.5 88.2 L556.3 91.4 L557.1 94.5 L559.5 102.1 L560.9 105.9 L564.5 114.3 L565.2 115.7 L568.1 120.9 L569.2 122.5 L572.0 126.4 L574.1 128.5 L575.4 129.6 L580.0 131.9 L582.7 132.2 L584.7 131.3 L585.8 130.3 L586.4 128.9 L586.5 125.1 L586.1 123.4 L585.6 121.6 L584.0 118.5 L583.1 117.0 L581.8 115.3 L580.4 113.5 L577.8 110.8 L573.7 106.5 L570.7 103.1 L568.7 99.6 L567.8 97.2 L567.5 92.6 L568.4 89.1 L571.9 84.3 L575.8 81.2 L578.2 79.8 L579.0 79.4 L583.6 77.0 L586.7 75.7 L592.7 73.2 L598.2 71.5 L605.5 70.1 L609.1 70.0 L614.1 71.5 L615.6 72.7 L618.4 77.0 L619.4 79.2 L620.8 83.9 L621.5 88.9 L621.7 90.7 L621.8 93.6 L621.9 97.3 L621.7 101.9 L621.3 107.4 L620.7 113.3 L619.7 122.4 L619.3 126.0 L617.8 139.5 L616.5 151.4 L615.7 158.8 L615.1 164.1 L613.7 171.7 L609.7 186.5 L605.7 198.4 L602.2 208.1 L599.6 214.6 L593.3 229.5 L586.9 242.6 L585.6 244.9 L577.1 257.7 L564.7 270.6 L556.3 277.0 L545.4 283.2 L528.5 291.3 L520.6 295.1 L508.2 301.4 L500.1 305.4 L492.9 309.1 L471.6 319.1 L461.2 323.5 L449.6 327.8 L434.8 332.3 L424.7 334.7 L413.0 336.9 L399.1 338.7 L391.1 339.5 L368.5 343.2 L365.6 345.3 L363.3 348.8 L360.9 353.4 L359.1 355.7 L355.4 358.2 L352.3 359.1 L348.8 359.3 L345.8 359.1 L343.7 358.8 L341.8 358.4 L336.2 357.0 L333.2 356.4 L328.3 356.0 L320.1 356.7 L315.8 357.3 L310.1 358.2 L305.5 358.9 L296.6 360.2 L296.0 360.3 L282.2 362.1 L274.4 363.0 L266.4 364.0 L260.4 364.6 L252.0 365.5 L232.9 367.3 L226.6 367.8 L218.7 368.3 L209.1 369.1 L202.4 370.7 L193.7 376.1 L189.0 380.8 L182.6 389.1 L177.3 398.7 L176.2 401.2 L172.3 412.5 L168.9 430.3 L168.0 439.6 L167.7 449.9 L168.0 456.2 L171.5 469.1 L176.6 475.1 L184.2 486.9 L188.2 499.2 L191.3 510.1 L192.9 516.9 L195.4 529.6 L196.8 539.6 L198.0 551.8 L198.0 552.9 L198.3 558.6 L198.0 566.8 L197.2 569.9 L188.6 588.6 L189.6 596.3 L190.9 601.8 L192.3 606.6 L194.8 613.4 L199.0 622.6 L204.8 632.2 L207.2 635.5 L215.0 644.6 L219.6 648.7 L223.5 651.3 L233.2 656.8 L239.2 660.0 L244.1 663.0 L248.3 666.8 L250.1 669.7 L251.0 673.9 L250.9 675.8 L250.6 677.9 L249.1 681.8 L247.5 684.0 L245.6 685.7 L242.7 687.2 L240.5 687.9 L237.4 688.6 L234.3 689.1 L229.6 689.5 L225.1 689.9 L218.6 690.0 L215.0 689.9 L209.1 689.2 L205.9 688.6 L202.8 687.4 L200.0 685.6 L196.7 680.9 L196.0 678.9 L195.0 675.4 L194.2 671.7 L192.4 663.7 L190.7 659.0 L188.9 655.4 L184.0 647.5 L182.4 645.0 L176.2 636.0 L173.1 630.9 L170.5 626.0 L166.0 615.4 L160.8 600.2 L158.2 591.9 L154.1 577.6 L151.7 568.6 L141.8 520.0 L140.7 508.0 L139.8 496.7 L139.4 490.1 L138.3 471.8 Z" fill="none" stroke="#f2f2f2" stroke-width="7" stroke-linejoin="round" stroke-linecap="round"></path>
  <circle cx="138.1" cy="468.8" r="9" fill="#E10600"></circle>
  <text x="380" y="798" fill="#c9c7ca" font-family="ui-monospace, Menlo, monospace" font-size="26" letter-spacing="1.5" text-anchor="middle">MONTE CARLO · MONACO</text>
</svg>