<svg xmlns="http://www.w3.org/2000/svg" width="760" height="820" viewBox="0 0 760 820">
  <rect width="760" height="820" rx="20" fill="#1a181b"></rect>
  <path d="M204.1 541.4 L204.8 533.8 L205.6 524.6 L206.3 516.5 L207.2 505.7 L208.3 493.3 L208.8 487.0 L209.5 479.2 L210.3 470.4 L210.8 464.1 L211.3 458.8 L211.7 454.1 L211.8 452.6 L212.6 444.0 L213.3 435.0 L214.0 427.1 L214.5 421.3 L215.1 414.4 L215.9 405.3 L216.5 399.0 L217.1 391.5 L217.6 385.7 L217.7 384.1 L218.5 374.5 L219.4 364.9 L219.7 361.2 L220.2 355.4 L220.6 351.1 L221.6 339.1 L222.1 332.7 L222.7 325.8 L223.4 316.8 L224.7 301.4 L225.1 298.6 L225.4 296.3 L226.0 293.5 L226.9 291.1 L228.2 289.1 L229.2 288.1 L231.3 286.9 L232.8 286.5 L235.3 286.0 L237.5 284.8 L238.4 283.4 L238.9 281.9 L239.1 280.6 L239.2 279.4 L239.1 277.3 L239.0 276.0 L238.6 274.4 L237.9 271.4 L237.1 268.3 L236.6 266.4 L235.7 263.1 L234.9 259.8 L234.3 257.5 L233.5 254.1 L232.9 250.8 L232.3 247.4 L231.7 243.8 L231.4 240.8 L231.2 237.0 L231.0 231.6 L231.0 228.7 L231.1 221.4 L231.5 213.9 L231.6 212.3 L232.2 204.9 L233.2 197.4 L233.9 193.6 L234.5 190.6 L236.2 184.3 L237.3 180.4 L239.4 174.9 L240.4 172.4 L244.0 165.0 L247.4 159.5 L251.1 154.1 L255.0 149.3 L257.9 146.3 L262.1 142.3 L268.1 137.4 L270.5 135.7 L273.7 133.5 L279.0 130.3 L283.3 128.0 L290.4 124.7 L294.1 123.2 L298.8 121.6 L308.0 119.1 L314.8 117.7 L316.8 117.3 L327.7 115.7 L332.6 115.1 L338.1 114.5 L347.5 113.7 L353.5 113.3 L359.9 112.7 L365.0 112.3 L374.0 111.7 L380.4 111.3 L384.8 111.0 L391.7 110.7 L399.5 110.4 L405.8 110.1 L409.7 110.0 L415.5 109.8 L417.8 109.7 L422.2 109.5 L426.0 109.3 L429.2 108.9 L431.5 108.4 L433.7 107.7 L436.0 106.8 L438.0 105.7 L439.2 104.6 L445.9 95.5 L447.9 94.2 L449.4 93.6 L453.1 92.3 L456.5 91.5 L459.3 90.9 L461.5 90.5 L465.5 89.8 L469.6 88.9 L472.0 88.2 L479.6 85.8 L484.2 84.4 L487.6 83.2 L492.1 81.5 L497.7 79.3 L499.8 78.5 L504.1 76.9 L508.6 75.4 L511.9 74.3 L516.1 72.9 L521.8 71.2 L525.5 70.3 L531.3 70.0 L534.1 70.3 L536.8 70.8 L541.4 72.6 L544.7 74.7 L546.9 76.6 L548.7 78.5 L550.8 81.5 L552.4 85.0 L553.7 88.6 L554.5 91.7 L555.2 96.0 L555.6 99.0 L556.0 103.1 L556.4 107.9 L556.8 113.3 L557.1 117.6 L557.5 123.5 L558.0 129.0 L558.9 138.3 L559.3 142.7 L559.6 148.0 L559.6 151.0 L559.2 156.2 L558.3 159.4 L556.6 163.0 L553.8 166.4 L550.8 169.0 L547.5 171.0 L544.3 172.8 L528.2 181.1 L521.4 184.7 L515.0 188.2 L512.1 189.7 L508.4 191.7 L507.0 192.5 L500.7 196.2 L495.1 199.4 L490.4 202.0 L484.6 205.2 L478.2 208.8 L470.6 213.2 L462.7 218.2 L457.2 221.9 L453.2 225.0 L450.2 227.4 L444.9 231.7 L441.9 234.2 L435.2 239.9 L430.0 244.5 L425.1 248.8 L419.0 254.0 L413.7 258.7 L409.5 262.3 L407.6 264.0 L399.6 270.9 L395.4 274.6 L389.7 279.5 L386.6 282.2 L381.7 286.5 L378.6 289.1 L374.9 292.4 L367.8 298.6 L359.9 305.4 L355.7 309.1 L349.1 314.8 L345.7 317.8 L341.1 321.8 L335.0 327.0 L331.5 330.1 L327.4 333.7 L325.2 335.8 L322.4 338.4 L319.7 341.4 L318.8 342.7 L317.2 345.6 L316.1 350.5 L316.0 354.2 L316.0 357.0 L316.0 361.5 L315.4 368.0 L314.8 371.0 L314.0 373.3 L311.7 378.6 L309.9 381.7 L306.3 386.1 L302.2 390.2 L299.7 393.2 L296.4 398.9 L294.3 405.7 L293.1 412.8 L292.6 417.1 L292.2 422.3 L292.0 424.5 L291.1 433.2 L290.6 438.5 L290.0 444.8 L289.2 454.4 L288.7 459.0 L288.1 466.0 L287.7 470.8 L287.4 474.1 L287.0 478.4 L286.1 488.0 L285.4 495.3 L284.6 503.6 L284.3 507.0 L283.9 511.5 L283.4 517.0 L282.3 528.9 L281.8 534.9 L280.9 544.0 L280.0 554.1 L279.5 559.7 L279.1 563.8 L278.0 575.6 L277.5 581.7 L276.8 589.0 L276.3 594.1 L275.8 599.8 L275.1 607.5 L274.5 613.8 L274.1 617.9 L273.6 624.2 L272.6 634.1 L271.9 641.4 L271.2 647.6 L271.0 649.6 L269.8 658.6 L268.9 663.6 L268.0 667.5 L266.6 672.5 L265.3 675.8 L263.9 678.6 L262.1 681.3 L258.9 684.7 L255.7 686.9 L252.8 688.4 L248.0 689.7 L244.2 690.0 L239.6 689.6 L234.9 688.5 L227.3 684.9 L224.1 682.7 L218.6 677.7 L215.2 673.8 L212.7 670.2 L210.4 666.3 L208.8 663.4 L207.3 659.9 L205.9 656.4 L203.4 648.1 L202.3 643.0 L201.3 636.0 L200.7 629.8 L200.5 623.9 L200.4 616.5 L200.4 612.3 L200.8 592.5 L201.0 587.7 L201.2 581.9 L201.7 573.1 L202.1 567.4 L202.4 562.9 L202.9 557.0 L203.4 550.0 L204.0 542.4 Z" fill="none" stroke="#f2f2f2" stroke-width="7" stroke-linejoin="round" stroke-linecap="round"></path>
  <circle cx="204.1" cy="541.4" r="9" fill="#E10600"></circle>
  <text x="380" y="798" fill="#c9c7ca" font-family="ui-monospace, Menlo, monospace" font-size="26" letter-spacing="1.5" text-anchor="middle">MONZA · ITALY</text>
</svg>