<svg xmlns="http://www.w3.org/2000/svg" width="760" height="820" viewBox="0 0 760 820">
  <rect width="760" height="820" rx="20" fill="#1a181b"></rect>
  <path d="M180.5 431.8 L181.2 416.8 L181.6 406.8 L182.0 397.6 L182.6 384.1 L183.1 371.4 L183.6 359.5 L184.0 351.1 L184.3 343.2 L184.7 333.0 L185.2 321.9 L185.6 310.8 L186.3 296.2 L186.8 283.3 L187.3 272.1 L187.4 268.7 L187.9 257.4 L188.4 246.2 L188.8 236.7 L189.1 228.1 L189.3 224.7 L189.7 215.1 L190.1 204.8 L190.6 194.5 L190.9 186.7 L191.5 172.6 L191.8 163.9 L192.0 155.5 L192.1 150.3 L192.2 138.2 L192.2 130.5 L192.1 118.5 L192.1 111.5 L192.0 100.3 L192.4 91.7 L192.5 90.5 L192.9 86.6 L193.8 82.0 L194.7 78.8 L196.3 75.5 L199.2 72.2 L200.1 71.5 L204.9 70.0 L213.7 73.8 L215.6 75.4 L218.0 77.7 L221.0 80.9 L222.5 82.6 L224.4 84.6 L230.5 90.2 L232.0 91.2 L235.3 93.2 L238.9 94.7 L242.9 95.8 L249.3 96.3 L253.9 95.9 L257.7 95.2 L265.6 93.5 L274.9 90.9 L281.3 88.8 L284.1 87.9 L289.2 86.4 L296.9 84.8 L303.1 84.4 L310.3 84.4 L316.2 84.7 L325.3 85.5 L337.5 87.1 L345.1 88.6 L361.3 91.9 L365.6 92.8 L372.9 94.2 L384.7 96.6 L393.0 98.3 L400.6 99.8 L405.1 100.8 L415.1 102.8 L430.1 105.8 L441.2 108.0 L451.5 110.0 L460.3 111.8 L470.8 113.8 L485.4 116.6 L495.2 118.4 L505.0 120.2 L511.4 121.4 L522.1 123.4 L529.9 124.9 L534.7 125.7 L543.0 127.2 L557.9 129.9 L562.8 130.9 L569.5 132.5 L576.5 135.2 L582.6 138.6 L584.9 140.3 L586.0 141.3 L590.1 147.4 L591.1 151.3 L591.3 156.8 L590.5 162.4 L589.2 166.7 L586.9 171.5 L582.7 177.5 L580.3 180.2 L576.9 183.5 L571.0 188.4 L564.5 193.0 L559.3 196.6 L555.7 199.1 L547.8 204.8 L544.0 207.7 L539.1 211.5 L532.8 216.8 L525.2 223.9 L521.1 228.4 L512.8 238.7 L505.9 248.7 L502.9 253.5 L500.0 258.3 L493.8 268.0 L487.7 275.2 L484.0 278.6 L464.3 287.4 L460.0 287.7 L455.1 287.8 L445.8 287.7 L439.6 287.6 L427.5 288.4 L419.6 290.1 L409.7 293.9 L399.3 299.9 L395.5 303.0 L390.1 308.2 L385.4 313.7 L376.9 325.9 L369.7 337.8 L365.8 344.4 L359.5 354.7 L354.7 361.4 L352.1 364.8 L349.7 367.8 L344.5 373.4 L342.6 374.9 L339.9 376.4 L334.5 378.1 L329.8 378.0 L327.8 377.2 L325.4 375.1 L324.3 373.6 L322.7 370.9 L321.3 367.8 L320.4 365.4 L319.6 362.5 L318.7 353.9 L318.9 349.6 L319.4 344.7 L320.2 339.0 L321.0 333.5 L322.1 328.1 L323.8 320.5 L324.1 319.2 L325.0 314.9 L326.9 306.1 L329.1 295.6 L330.5 289.5 L332.6 280.9 L333.8 275.8 L336.1 265.4 L338.1 255.4 L339.6 247.1 L340.6 240.8 L341.8 232.2 L342.9 221.4 L343.1 215.2 L342.7 205.6 L341.6 199.1 L340.0 193.4 L338.3 188.8 L334.5 180.6 L332.2 176.8 L329.1 172.7 L325.2 168.6 L323.0 166.6 L320.0 164.5 L316.1 162.3 L313.5 161.3 L310.9 160.8 L307.9 160.8 L305.0 161.7 L302.9 163.2 L300.8 165.8 L299.5 168.4 L298.8 169.8 L297.8 173.0 L297.3 175.0 L296.9 176.9 L296.4 179.4 L295.9 182.4 L295.5 184.8 L295.2 187.4 L294.6 191.9 L294.2 195.0 L293.7 199.8 L292.9 208.7 L292.2 216.8 L291.7 224.2 L290.9 236.3 L290.5 244.1 L290.3 247.2 L289.9 254.2 L289.3 265.3 L288.8 274.1 L288.1 289.3 L287.7 298.0 L287.3 306.8 L286.8 316.4 L286.5 322.4 L286.2 329.3 L285.5 345.5 L284.9 357.3 L284.8 359.7 L284.4 369.2 L284.0 377.3 L283.2 394.7 L282.6 406.2 L282.2 415.3 L281.6 427.7 L281.2 436.9 L280.7 444.5 L280.4 452.0 L279.9 461.3 L279.0 476.4 L278.5 485.8 L278.5 502.5 L279.2 509.6 L279.6 512.2 L280.8 518.1 L283.1 524.8 L285.6 529.0 L288.1 531.9 L291.2 534.5 L297.4 537.9 L302.4 539.8 L306.5 541.0 L314.8 541.9 L326.0 540.4 L333.8 537.8 L339.5 535.1 L344.3 532.3 L350.7 527.3 L354.3 524.1 L357.6 520.6 L362.6 514.3 L365.8 509.5 L371.4 499.1 L374.4 492.3 L376.9 485.9 L381.4 474.2 L385.4 465.9 L391.9 455.6 L396.1 449.8 L401.9 443.4 L406.1 439.5 L410.7 436.1 L417.6 432.0 L428.8 427.0 L440.6 423.6 L443.4 423.1 L451.3 422.3 L462.1 423.0 L469.9 424.5 L476.2 426.6 L482.4 429.1 L491.2 433.4 L497.2 436.4 L505.2 440.3 L511.8 443.4 L515.0 445.0 L525.4 450.2 L537.2 458.6 L538.6 459.9 L544.2 467.4 L547.0 475.9 L547.8 481.7 L547.7 485.6 L547.0 490.2 L545.2 495.6 L541.1 502.4 L535.1 508.9 L531.7 511.8 L523.9 517.3 L519.5 520.0 L508.1 526.1 L500.9 529.8 L491.1 534.9 L480.9 540.2 L473.3 544.2 L462.5 550.0 L454.5 554.3 L448.1 557.7 L437.1 563.8 L428.6 568.4 L422.0 572.1 L408.6 579.5 L401.1 583.7 L393.5 587.9 L383.8 593.3 L361.9 605.5 L351.1 611.5 L333.7 621.3 L325.6 625.7 L310.1 634.4 L304.2 637.7 L290.8 645.3 L281.9 650.3 L269.2 657.6 L266.2 659.2 L248.4 669.4 L235.3 676.9 L226.9 681.5 L221.2 684.5 L215.9 686.8 L212.4 688.0 L206.9 689.4 L201.2 690.0 L196.3 689.9 L191.1 688.5 L188.6 687.2 L184.2 683.3 L180.8 679.4 L177.7 674.7 L177.1 673.7 L175.3 670.3 L173.4 666.0 L172.2 662.7 L171.2 659.2 L170.0 653.5 L169.2 646.8 L168.8 642.5 L168.7 635.7 L168.7 632.8 L169.2 625.2 L170.3 613.4 L171.0 607.0 L171.8 598.5 L172.5 591.8 L173.2 584.2 L173.8 578.7 L174.4 570.9 L174.8 565.2 L175.2 558.0 L175.6 549.1 L176.1 535.6 L176.6 523.4 L176.9 517.2 L177.4 506.4 L177.7 497.7 L178.2 488.2 L180.1 442.5 Z" fill="none" stroke="#f2f2f2" stroke-width="7" stroke-linejoin="round" stroke-linecap="round"></path>
  <circle cx="180.5" cy="431.8" r="9" fill="#E10600"></circle>
  <text x="380" y="798" fill="#c9c7ca" font-family="ui-monospace, Menlo, monospace" font-size="26" letter-spacing="1.5" text-anchor="middle">SAKHIR · BAHRAIN</text>
</svg>