<svg xmlns="http://www.w3.org/2000/svg" width="760" height="820" viewBox="0 0 760 820">
  <rect width="760" height="820" rx="20" fill="#1a181b"></rect>
  <path d="M222.0 493.6 L224.6 490.2 L228.9 484.8 L231.6 481.4 L236.2 475.2 L237.8 473.0 L241.7 467.5 L245.4 462.5 L248.0 458.9 L254.4 450.1 L259.1 443.5 L264.0 436.3 L266.6 432.4 L269.9 427.5 L274.8 420.2 L279.3 413.9 L286.5 404.3 L290.7 399.3 L295.6 394.0 L299.6 390.3 L305.8 385.8 L313.4 382.3 L321.0 380.3 L332.5 379.2 L338.5 379.3 L347.5 380.1 L354.1 381.0 L357.1 381.3 L363.6 382.0 L371.5 382.1 L379.9 381.5 L386.8 380.1 L397.5 376.0 L401.7 373.6 L410.0 367.7 L414.0 364.1 L418.8 359.5 L422.5 355.6 L431.8 346.7 L436.0 342.9 L441.1 338.5 L446.2 334.4 L448.7 332.5 L453.5 330.2 L456.8 329.6 L460.0 329.6 L463.9 330.4 L465.8 331.3 L468.0 332.7 L470.4 334.9 L472.6 338.2 L473.0 339.0 L473.8 341.0 L474.5 343.7 L475.1 347.3 L475.3 349.4 L475.5 351.7 L475.8 355.0 L476.5 358.6 L476.9 360.0 L477.6 361.7 L478.4 363.4 L480.2 366.0 L483.1 368.9 L484.3 369.8 L485.7 370.7 L489.1 371.7 L492.7 370.7 L494.3 369.5 L496.3 367.7 L498.5 365.1 L499.7 363.4 L501.5 360.4 L502.6 358.2 L503.7 355.8 L504.6 353.4 L505.5 350.8 L506.6 347.1 L507.2 344.4 L508.0 340.9 L508.9 336.1 L509.4 328.6 L509.1 324.0 L508.4 318.6 L506.9 312.2 L505.1 307.5 L502.2 301.7 L498.9 296.5 L495.1 291.5 L491.0 287.2 L488.8 285.2 L484.5 281.6 L480.1 278.1 L472.6 272.4 L464.4 265.7 L458.9 261.1 L454.0 256.9 L450.6 254.0 L443.1 247.6 L437.5 242.8 L430.6 237.0 L425.9 232.9 L422.4 229.9 L418.1 226.1 L414.2 222.6 L410.2 219.2 L405.4 214.9 L401.5 211.5 L397.9 208.3 L387.6 199.4 L384.0 196.2 L378.6 191.5 L370.9 184.8 L363.8 178.5 L358.4 173.7 L350.3 166.4 L347.7 164.1 L341.3 158.9 L337.9 156.3 L330.2 151.8 L326.9 150.3 L321.5 148.6 L316.4 147.9 L311.8 147.9 L308.8 148.1 L304.8 148.9 L301.2 150.4 L297.1 153.0 L294.7 155.5 L292.3 159.2 L290.3 163.5 L289.5 165.8 L288.5 171.8 L288.3 174.5 L288.1 179.3 L287.9 182.8 L287.5 185.8 L285.7 191.3 L284.2 193.8 L282.1 196.4 L280.3 198.1 L278.0 199.7 L275.3 201.0 L271.9 202.0 L269.1 202.2 L266.5 201.7 L265.8 201.5 L263.5 200.4 L260.2 197.8 L258.0 195.1 L257.0 193.6 L255.6 190.7 L254.5 187.4 L253.9 184.4 L253.7 182.3 L253.6 178.9 L253.8 176.2 L254.4 171.4 L255.3 167.4 L257.2 161.5 L258.7 157.9 L261.3 152.0 L270.8 134.7 L275.7 127.7 L281.0 121.2 L285.0 116.7 L288.2 113.5 L291.6 110.3 L295.1 107.2 L303.0 101.1 L315.1 93.9 L320.2 91.7 L331.2 87.7 L338.8 85.6 L343.7 84.5 L351.6 83.0 L359.7 81.9 L365.4 81.2 L372.4 80.4 L380.6 79.6 L384.1 79.2 L393.5 78.3 L402.5 77.3 L412.1 76.2 L419.9 75.4 L433.1 73.8 L443.9 72.3 L451.7 71.3 L457.7 70.7 L466.2 70.0 L470.8 70.0 L473.7 70.2 L485.6 72.7 L491.8 75.3 L498.7 79.5 L503.2 83.1 L508.0 87.8 L512.8 94.9 L516.1 101.7 L520.3 113.1 L521.6 117.6 L524.2 127.8 L526.9 139.8 L528.7 150.0 L529.5 155.9 L530.9 166.8 L531.6 175.2 L532.3 185.0 L532.5 190.6 L532.8 203.6 L533.2 214.1 L534.0 224.2 L536.1 236.6 L538.3 245.8 L541.2 255.4 L544.2 263.7 L546.1 268.4 L548.4 274.2 L550.7 280.7 L551.9 285.3 L552.6 297.0 L551.9 302.4 L550.6 308.9 L549.3 314.0 L547.5 321.3 L545.6 330.8 L544.8 340.8 L545.8 348.7 L548.8 356.8 L550.7 360.4 L553.8 365.7 L556.6 370.3 L558.3 373.6 L560.7 379.9 L561.8 385.7 L561.5 391.1 L560.8 394.8 L559.3 399.4 L555.4 407.0 L551.9 411.6 L549.2 414.2 L543.4 418.2 L539.1 420.6 L532.6 424.1 L530.6 425.3 L525.8 429.0 L518.8 436.1 L512.6 443.4 L509.0 448.6 L504.2 456.7 L499.6 465.3 L497.6 469.2 L495.4 473.7 L492.3 480.2 L490.1 484.8 L486.9 491.5 L484.1 497.1 L480.7 504.4 L475.8 514.7 L471.7 523.2 L467.8 531.2 L462.3 542.6 L455.9 555.8 L453.8 560.3 L450.6 566.9 L441.2 586.3 L437.9 593.0 L432.0 604.8 L425.8 617.2 L423.8 621.1 L418.8 630.6 L414.6 638.7 L408.8 649.2 L408.2 650.3 L404.8 656.3 L401.5 661.6 L397.4 667.8 L391.4 675.3 L385.5 681.1 L377.1 686.4 L369.2 689.2 L363.1 690.0 L352.5 688.5 L345.7 685.7 L341.7 683.2 L339.8 681.7 L334.2 676.4 L330.9 672.2 L328.7 668.9 L324.9 662.4 L321.8 656.6 L319.1 651.6 L317.1 648.0 L312.7 641.5 L310.2 638.0 L307.0 633.6 L300.9 625.3 L296.9 620.0 L294.1 616.2 L291.1 612.4 L287.7 608.1 L282.3 601.8 L276.9 595.7 L274.0 592.4 L272.7 590.9 L270.0 587.9 L266.2 583.7 L261.0 578.9 L259.5 577.8 L254.1 575.3 L252.4 574.9 L250.4 574.7 L248.4 574.7 L244.0 575.7 L242.1 576.6 L240.0 578.0 L238.5 579.2 L235.9 581.1 L233.3 582.7 L230.0 583.9 L226.3 583.9 L222.0 582.8 L219.4 581.8 L217.6 580.9 L215.7 579.7 L213.7 578.2 L210.5 574.8 L207.1 570.5 L205.1 567.8 L204.2 566.3 L202.2 562.3 L200.7 558.3 L199.7 555.2 L198.9 550.7 L198.4 546.9 L198.2 541.7 L199.1 533.2 L200.2 528.7 L205.4 516.7 L209.8 510.1 L215.5 502.1 L216.4 500.9 L219.9 496.3 Z" fill="none" stroke="#f2f2f2" stroke-width="7" stroke-linejoin="round" stroke-linecap="round"></path>
  <circle cx="222.0" cy="493.6" r="9" fill="#E10600"></circle>
  <text x="380" y="798" fill="#c9c7ca" font-family="ui-monospace, Menlo, monospace" font-size="26" letter-spacing="1.5" text-anchor="middle">SILVERSTONE · UK</text>
</svg>