<svg xmlns="http://www.w3.org/2000/svg" width="760" height="820" viewBox="0 0 760 820">
  <rect width="760" height="820" rx="20" fill="#1a181b"></rect>
  <path d="M683.5 373.5 L683.0 370.3 L682.1 364.7 L680.9 357.1 L678.8 343.5 L678.1 338.3 L676.6 328.4 L675.1 317.7 L673.4 304.9 L672.9 300.8 L671.6 290.7 L670.5 282.0 L669.7 274.9 L668.6 266.1 L667.5 255.9 L666.4 245.7 L665.3 237.6 L665.0 235.2 L664.0 229.9 L661.7 220.5 L660.5 217.8 L659.1 215.2 L656.4 211.8 L652.3 208.7 L647.1 206.8 L646.2 206.5 L639.4 205.2 L635.8 204.3 L632.8 203.4 L626.7 200.0 L622.5 196.6 L617.9 192.7 L614.1 189.6 L612.0 188.3 L608.1 186.6 L605.1 186.4 L601.7 187.0 L600.2 187.6 L598.2 188.9 L596.8 190.2 L595.8 191.3 L594.3 193.8 L592.7 197.5 L592.1 199.6 L591.1 203.5 L590.4 208.1 L589.9 215.4 L590.2 222.2 L591.1 228.3 L592.1 233.0 L593.2 237.0 L594.8 241.7 L596.1 245.4 L598.8 251.9 L601.1 257.7 L606.2 269.7 L610.0 279.1 L611.8 283.9 L615.4 295.0 L616.9 300.7 L618.0 305.4 L619.4 313.9 L620.0 325.0 L619.5 333.4 L618.1 339.2 L615.6 343.8 L613.6 346.1 L611.1 348.3 L605.1 351.5 L602.3 352.5 L597.2 353.8 L587.3 355.3 L582.1 355.7 L577.1 355.8 L568.4 355.6 L560.9 355.0 L557.2 354.7 L552.5 354.2 L541.6 353.2 L534.8 352.6 L529.7 352.2 L523.3 351.7 L518.7 351.3 L510.3 350.6 L498.6 349.8 L488.0 348.9 L479.1 348.2 L470.7 347.6 L464.2 347.0 L457.0 346.4 L445.8 345.5 L439.8 344.9 L433.1 344.1 L424.5 342.7 L418.5 341.4 L409.4 338.8 L401.1 335.6 L393.6 332.0 L380.2 324.5 L374.1 320.9 L368.2 317.3 L357.9 311.1 L353.6 308.4 L343.8 302.4 L338.7 299.2 L333.4 295.7 L325.2 290.3 L320.6 287.3 L312.7 282.0 L304.2 276.4 L299.0 273.9 L296.1 272.7 L291.6 271.3 L286.9 270.3 L282.5 270.1 L280.8 270.3 L275.5 272.3 L273.7 273.5 L270.7 276.0 L268.6 278.2 L266.9 280.1 L263.4 284.6 L259.8 289.8 L256.6 294.5 L253.8 299.3 L251.9 303.4 L248.9 309.6 L247.7 312.2 L246.0 316.2 L244.1 320.7 L241.9 325.8 L240.5 328.6 L238.8 331.8 L237.0 334.6 L235.0 336.9 L232.0 339.1 L224.5 338.7 L223.0 337.8 L221.7 336.9 L219.6 335.1 L218.0 333.6 L216.6 332.1 L213.1 328.1 L210.5 324.6 L208.6 322.0 L206.9 319.8 L205.1 317.5 L203.0 314.9 L198.5 309.6 L193.8 304.6 L186.9 298.3 L184.5 296.6 L179.7 294.0 L176.3 292.6 L172.1 291.5 L168.9 291.1 L166.2 291.2 L161.7 292.3 L157.4 294.5 L155.1 296.0 L150.1 300.9 L146.4 305.8 L144.4 308.8 L141.3 313.9 L138.2 319.6 L135.2 325.4 L134.1 327.6 L130.3 335.8 L128.2 340.0 L125.6 345.2 L123.8 348.6 L120.9 353.9 L116.7 361.3 L111.4 370.3 L108.5 375.5 L105.1 381.2 L99.6 390.8 L97.1 395.1 L92.8 402.7 L89.9 407.6 L84.3 416.6 L80.1 422.9 L78.1 426.1 L74.9 431.4 L73.0 434.8 L70.8 439.9 L70.2 442.5 L70.0 444.5 L70.9 452.4 L75.0 462.7 L76.6 465.3 L79.9 469.1 L83.7 472.2 L87.4 474.5 L92.9 477.0 L100.2 479.7 L105.4 481.8 L108.6 484.6 L110.6 487.9 L112.2 492.6 L113.2 496.6 L113.8 500.2 L114.2 502.6 L114.5 503.8 L115.4 509.6 L116.0 512.8 L116.8 515.7 L118.1 518.8 L121.1 522.8 L123.5 525.2 L126.5 527.7 L132.6 532.7 L137.7 536.7 L144.6 542.6 L147.9 545.6 L153.3 551.2 L157.1 556.0 L159.5 559.7 L163.9 566.5 L167.0 570.3 L168.3 571.4 L171.1 573.1 L172.5 573.6 L175.4 573.6 L177.0 573.0 L178.1 572.2 L179.4 570.7 L180.8 568.5 L181.8 566.0 L182.8 563.0 L183.4 560.7 L183.5 560.2 L184.2 556.2 L185.2 551.0 L185.7 547.9 L186.3 542.7 L186.7 539.4 L187.3 534.6 L188.1 529.2 L188.8 524.7 L189.9 517.8 L191.5 509.5 L193.5 499.4 L195.1 490.9 L196.1 485.4 L198.4 471.8 L200.2 462.6 L202.6 450.1 L205.2 437.4 L206.8 430.0 L210.3 416.0 L211.5 412.2 L213.8 404.8 L217.3 394.4 L218.5 390.9 L222.3 380.6 L225.3 372.8 L226.8 369.1 L228.2 366.2 L229.5 363.7 L231.8 360.5 L233.5 359.0 L236.6 357.4 L239.3 357.0 L241.4 357.1 L244.4 357.9 L246.8 359.0 L249.3 360.4 L251.6 362.0 L255.0 364.6 L256.4 365.7 L259.5 368.3 L262.4 370.7 L264.9 372.9 L269.4 376.9 L274.0 381.3 L280.1 387.0 L284.1 390.5 L287.5 393.4 L291.1 396.3 L298.3 402.4 L303.0 406.1 L309.6 411.0 L316.8 415.5 L323.1 418.6 L331.9 421.7 L340.2 423.5 L349.9 424.6 L376.4 426.3 L386.1 427.0 L396.5 427.6 L406.4 428.3 L417.2 429.0 L426.6 429.6 L432.7 430.0 L439.6 430.4 L446.4 430.7 L454.0 431.0 L461.5 431.3 L470.4 431.4 L481.4 431.6 L488.6 431.9 L498.9 432.2 L504.7 432.5 L509.7 432.9 L513.5 433.2 L517.7 433.6 L523.4 434.6 L527.7 436.3 L529.9 438.1 L530.2 438.5 L531.6 440.9 L532.8 444.5 L533.9 448.9 L535.6 454.0 L537.3 457.6 L539.2 460.6 L541.1 463.2 L543.0 465.3 L547.4 468.8 L552.1 471.2 L555.7 472.4 L561.6 473.6 L567.2 474.4 L571.2 474.7 L576.3 474.9 L578.7 474.9 L587.0 475.0 L592.1 475.0 L601.0 475.2 L606.9 475.4 L616.3 475.9 L627.1 476.6 L633.4 477.0 L642.0 477.5 L650.6 477.5 L659.0 476.5 L664.8 474.5 L668.1 472.6 L671.4 469.9 L676.3 464.5 L679.5 460.0 L682.8 454.4 L684.8 450.3 L688.3 439.8 L689.5 432.9 L689.9 428.4 L690.0 420.4 L689.2 409.6 L688.6 404.3 L687.1 394.6 L684.4 378.8 Z" fill="none" stroke="#f2f2f2" stroke-width="7" stroke-linejoin="round" stroke-linecap="round"></path>
  <circle cx="683.5" cy="373.5" r="9" fill="#E10600"></circle>
  <text x="380" y="798" fill="#c9c7ca" font-family="ui-monospace, Menlo, monospace" font-size="26" letter-spacing="1.5" text-anchor="middle">MARINA BAY · SINGAPORE</text>
</svg>