<svg xmlns="http://www.w3.org/2000/svg" width="760" height="820" viewBox="0 0 760 820">
  <rect width="760" height="820" rx="20" fill="#1a181b"></rect>
  <path d="M301.6 162.3 L299.4 158.9 L294.9 152.2 L292.6 148.7 L289.7 144.3 L287.5 141.0 L283.8 135.4 L281.0 131.2 L277.8 126.3 L274.0 120.6 L270.4 115.2 L268.1 111.7 L266.8 109.8 L264.0 105.5 L258.9 97.8 L255.7 92.9 L253.5 89.4 L252.3 87.4 L251.0 84.8 L249.7 81.8 L249.0 78.9 L248.8 76.0 L249.1 74.5 L255.1 70.0 L256.1 70.1 L257.7 70.4 L258.9 70.7 L262.3 71.8 L265.3 73.0 L267.8 74.2 L271.0 75.7 L275.3 77.9 L279.5 80.1 L284.8 82.8 L287.2 84.0 L290.2 85.6 L294.7 87.9 L300.0 90.7 L302.0 91.9 L305.4 93.9 L314.7 99.8 L319.9 103.6 L324.4 106.9 L328.1 109.9 L331.2 112.4 L338.3 118.8 L342.3 122.8 L347.6 128.1 L351.2 131.9 L355.6 136.4 L358.6 139.6 L361.3 142.5 L365.0 146.4 L369.1 150.7 L374.3 156.3 L376.8 158.9 L383.7 166.6 L386.8 170.1 L394.1 178.3 L400.2 184.8 L405.1 189.4 L414.5 195.1 L420.1 197.7 L428.2 204.0 L431.4 208.0 L436.3 217.3 L438.3 223.1 L439.8 229.5 L440.5 234.2 L441.3 238.7 L444.8 248.8 L447.2 253.2 L450.7 259.1 L454.7 265.2 L457.3 269.1 L460.1 272.9 L463.6 277.5 L466.7 281.7 L471.8 288.4 L477.7 296.6 L480.8 300.9 L483.8 305.3 L488.8 312.9 L492.3 318.8 L496.9 327.3 L501.8 338.1 L511.9 367.7 L513.4 372.3 L515.3 378.0 L517.6 384.7 L519.9 391.6 L522.0 398.0 L525.1 407.4 L526.5 411.5 L529.3 419.8 L531.0 425.0 L533.4 432.2 L537.5 444.1 L540.1 451.9 L542.5 459.2 L546.9 472.2 L548.1 475.9 L549.7 480.6 L552.7 489.4 L556.2 499.8 L557.8 504.5 L560.0 511.3 L561.8 516.9 L565.1 526.7 L567.0 532.2 L569.5 539.7 L571.2 545.0 L572.3 550.0 L572.8 553.1 L573.0 555.5 L572.7 558.7 L572.2 560.8 L570.6 564.7 L568.5 567.7 L566.0 570.4 L564.1 572.4 L560.2 576.8 L558.2 580.2 L557.3 583.6 L557.0 586.8 L557.3 591.7 L558.9 597.5 L560.6 602.3 L562.1 606.2 L563.2 609.3 L564.4 614.1 L564.8 618.1 L564.1 623.8 L563.1 626.8 L560.5 631.9 L557.9 635.4 L555.3 638.1 L552.6 640.2 L546.2 644.7 L542.5 647.1 L539.8 649.0 L534.0 653.0 L513.1 668.7 L508.4 672.3 L503.3 676.3 L500.4 678.6 L497.1 681.0 L494.3 682.8 L491.0 684.8 L486.8 687.1 L484.3 688.4 L480.6 689.7 L477.4 690.0 L473.2 689.4 L470.8 688.4 L468.6 686.9 L466.3 684.6 L464.9 682.4 L463.9 680.2 L463.3 677.6 L463.3 676.8 L463.3 675.0 L464.2 670.6 L465.4 667.9 L466.4 666.3 L469.0 663.1 L471.7 660.7 L475.3 658.0 L479.9 655.1 L486.1 651.7 L490.1 649.5 L492.7 648.1 L498.6 643.8 L500.5 641.9 L504.0 637.2 L505.5 633.6 L506.2 629.0 L506.0 624.0 L505.7 622.2 L504.8 618.4 L503.1 613.2 L500.5 606.9 L498.8 603.0 L496.2 596.8 L493.0 588.7 L491.5 584.7 L490.0 580.2 L488.6 575.5 L486.2 566.4 L484.1 557.8 L482.8 552.3 L481.5 546.3 L480.6 542.0 L478.5 532.0 L477.5 527.2 L476.1 520.9 L471.6 500.9 L469.0 492.6 L467.8 489.9 L465.3 485.3 L461.9 480.9 L458.5 477.5 L453.7 474.0 L451.3 472.6 L448.0 471.2 L442.1 469.9 L434.8 469.4 L427.7 469.2 L422.9 469.4 L416.0 470.2 L408.4 472.9 L402.0 476.6 L398.4 479.1 L395.4 481.6 L392.6 484.3 L388.1 489.5 L383.4 496.5 L380.6 501.9 L377.4 509.2 L375.8 514.0 L373.5 521.3 L372.3 525.2 L370.6 530.5 L369.0 535.4 L366.8 542.3 L364.9 548.2 L363.3 553.1 L361.4 559.0 L360.0 563.5 L357.4 571.3 L355.2 578.0 L354.0 581.6 L351.8 586.8 L349.9 590.4 L347.3 594.2 L345.1 596.8 L342.5 599.2 L338.7 601.8 L333.3 603.7 L330.7 604.1 L327.3 604.1 L323.7 603.6 L321.3 603.0 L317.5 601.2 L314.9 599.7 L309.1 597.0 L305.8 595.9 L301.2 595.2 L299.2 595.3 L292.7 596.5 L288.0 598.5 L285.6 600.0 L282.8 602.2 L280.5 604.5 L277.0 608.7 L275.2 611.2 L273.0 614.4 L270.6 618.6 L269.1 621.6 L267.4 625.0 L265.6 628.9 L264.2 631.8 L262.0 636.4 L258.0 644.1 L255.6 648.4 L251.7 654.3 L248.3 658.1 L245.5 660.3 L241.3 662.3 L235.5 662.9 L233.2 662.6 L230.7 662.1 L226.2 660.7 L222.5 658.9 L217.7 656.1 L214.9 654.4 L210.8 651.7 L208.5 650.0 L205.1 647.5 L202.0 644.9 L198.3 641.4 L195.9 638.6 L191.5 632.2 L188.4 625.4 L187.0 618.8 L187.1 611.3 L187.7 606.0 L188.7 600.7 L190.7 593.8 L193.4 586.5 L195.3 582.3 L198.4 576.5 L201.5 571.3 L205.5 565.4 L209.5 560.0 L215.4 552.8 L218.4 549.3 L221.0 546.4 L228.2 538.9 L234.1 533.3 L236.3 531.3 L240.2 527.9 L245.3 523.8 L248.6 521.3 L252.0 518.9 L257.1 515.5 L262.4 512.2 L266.1 510.2 L270.2 507.8 L277.0 503.9 L281.1 501.5 L285.6 498.8 L293.5 494.3 L299.0 491.1 L304.0 488.1 L312.3 482.3 L321.6 474.3 L328.4 467.2 L331.4 463.3 L333.8 459.8 L337.2 454.3 L339.3 450.5 L344.3 440.4 L347.4 433.5 L349.9 427.6 L351.7 423.1 L354.1 417.1 L356.1 411.5 L358.6 402.7 L359.8 396.5 L360.1 393.9 L360.2 385.8 L359.3 377.8 L357.4 371.2 L354.3 362.1 L352.3 357.1 L348.9 348.7 L347.6 345.8 L345.3 340.4 L342.3 333.6 L339.1 326.2 L336.8 320.8 L334.8 315.8 L331.9 308.3 L330.2 303.2 L328.7 297.5 L327.2 290.7 L325.9 284.4 L324.3 276.2 L322.9 268.3 L322.4 265.7 L320.9 256.5 L320.2 251.9 L319.5 246.6 L319.5 231.7 L319.8 230.7 L320.6 229.0 L321.6 227.6 L323.3 226.4 L325.1 225.8 L326.0 225.6 L327.7 225.6 L329.2 225.6 L330.6 225.4 L333.1 224.6 L334.2 223.8 L335.1 222.7 L335.6 221.7 L336.0 220.3 L336.0 218.3 L335.9 217.0 L335.5 215.4 L335.1 214.0 L334.3 212.1 L333.4 210.3 L332.6 208.9 L332.0 208.0 L330.3 205.3 L329.1 203.6 L326.7 200.1 L326.4 199.7 L323.7 195.6 L320.7 191.1 L318.0 187.0 L316.7 185.1 L314.0 181.0 L311.6 177.4 L308.6 172.9 L305.4 168.0 L303.2 164.7 Z" fill="none" stroke="#f2f2f2" stroke-width="7" stroke-linejoin="round" stroke-linecap="round"></path>
  <circle cx="301.6" cy="162.3" r="9" fill="#E10600"></circle>
  <text x="380" y="798" fill="#c9c7ca" font-family="ui-monospace, Menlo, monospace" font-size="26" letter-spacing="1.5" text-anchor="middle">SPA · BELGIUM</text>
</svg>